<?xml version="1.0" encoding="UTF-8"?>
<svg width="26px" height="26px" viewBox="0 0 26 26" version="1.1" xmlns="http://www.w3.org/2000/svg" xmlns:xlink="http://www.w3.org/1999/xlink">
    <title>LinkedIn_icon</title>
    <g id="Portfolio" stroke="none" stroke-width="1" fill="none" fill-rule="evenodd">
        <g id="LinkedIn_icon" fill-rule="nonzero">
            <path d="M2.88888889,26 L23.1111111,26 C24.7066004,26 26,24.7066004 26,23.1111111 L26,2.88888889 C26,1.29339961 24.7066004,0 23.1111111,0 L2.88888889,0 C1.29339961,0 0,1.29339961 0,2.88888889 L0,23.1111111 C0,24.7066004 1.29339961,26 2.88888889,26 Z" id="Path" fill="#FFFFFF"></path>
            <path d="M22.3888889,22.3888889 L18.5306424,22.3888889 L18.5306424,15.8174304 C18.5306424,14.0157168 17.8460359,13.0088589 16.4199761,13.0088589 C14.868609,13.0088589 14.0580838,14.0566509 14.0580838,15.8174304 L14.0580838,22.3888889 L10.3398148,22.3888889 L10.3398148,9.87037036 L14.0580838,9.87037036 L14.0580838,11.556613 C14.0580838,11.556613 15.1760706,9.48791101 17.8325883,9.48791101 C20.4878834,9.48791101 22.3888889,11.1093921 22.3888889,14.4629377 L22.3888889,22.3888889 Z M5.90393158,8.23117147 C4.63740958,8.23117147 3.61111111,7.19682048 3.61111111,5.92114131 C3.61111111,4.64546211 4.63740958,3.61111111 5.90393158,3.61111111 C7.17045355,3.61111111 8.19614077,4.64546211 8.19614077,5.92114131 C8.19614077,7.19682048 7.17045355,8.23117147 5.90393158,8.23117147 Z M3.98397715,22.3888889 L7.86117258,22.3888889 L7.86117258,9.87037036 L3.98397715,9.87037036 L3.98397715,22.3888889 Z" id="Shape" fill="#002478"></path>
        </g>
    </g>
</svg>