<?xml version="1.0" encoding="UTF-8"?>
<svg width="350px" height="100px" viewBox="0 0 350 100" version="1.1" xmlns="http://www.w3.org/2000/svg" xmlns:xlink="http://www.w3.org/1999/xlink">
    <title>logo-indeed</title>
    <g id="logo-indeed" stroke="none" stroke-width="1" fill="none" fill-rule="evenodd">
        <g id="INDEED" transform="translate(45, 12)" fill="#00296B">
            <path d="M257.629195,11.9157803 C256.715325,10.881074 255.485116,10.3724896 253.850695,10.3724896 C252.216273,10.3724896 250.933341,10.9161488 250.037045,12.0560795 C249.158324,13.1609353 248.701389,14.8094504 248.701389,16.9314752 L248.701389,32.5046817 C246.662756,30.3125073 244.553826,28.7516792 242.392172,27.6994355 C241.056516,27.0505519 239.474818,26.5770423 237.699802,26.3490561 C236.662911,26.2262944 235.62602,26.1561448 234.466108,26.1561448 C229.088335,26.1561448 224.729879,27.9975712 221.390739,31.7154989 C218.086748,35.3983518 216.434752,40.5368084 216.434752,47.1133314 C216.434752,50.2174503 216.856538,53.1286578 217.70011,55.7943418 C218.543683,58.4424884 219.738743,60.7749619 221.35559,62.7742249 C222.972437,64.7384131 224.923197,66.2641664 227.12,67.3690223 C229.316803,68.4388034 231.724498,68.9824626 234.343087,68.9824626 C235.538148,68.9824626 236.680485,68.8772382 237.717376,68.6843269 C238.437927,68.5791025 239.070606,68.3861912 239.756009,68.1932798 C241.408004,67.6496206 242.954553,66.8604378 244.360507,65.8608064 C245.819184,64.8261001 247.242712,63.5107955 248.701389,61.8798178 L248.701389,62.914524 C248.701389,64.8611749 249.193473,66.334316 250.160066,67.4040971 C251.161808,68.4388034 252.392018,68.9824626 253.850695,68.9824626 C255.379669,68.9824626 256.609879,68.4738782 257.541323,67.4917841 C258.472767,66.4570778 259,64.9663992 259,62.9320614 L259,16.3702786 C258.947277,14.4411652 258.507916,12.9154118 257.629195,11.9157803 Z M246.680331,54.8999347 C245.748886,56.8641229 244.448379,58.3548014 242.919405,59.3193581 C241.337707,60.2839148 239.615413,60.7398871 237.699802,60.7398871 L237.664653,60.7398871 C235.749041,60.7398871 234.044322,60.2313027 232.44505,59.2492086 C230.863352,58.2145023 229.597993,56.7238237 228.684124,54.7245607 C227.770254,52.7252977 227.330893,50.2700625 227.330893,47.4290045 C227.330893,44.7107084 227.752679,42.3256227 228.6314,40.3263597 C229.474972,38.2920219 230.705182,36.7136564 232.251731,35.6088005 C233.833429,34.4864073 235.590871,33.9602854 237.594355,33.9602854 L237.699802,33.9602854 C239.580265,33.9602854 241.284983,34.5039447 242.884256,35.5737257 C244.465954,36.6435068 245.731312,38.1867975 246.662756,40.1860605 C247.594201,42.1853235 248.051136,44.6405588 248.051136,47.4290045 C248.086284,50.4103616 247.62935,52.9006717 246.680331,54.8999347 Z M212.515656,55.3559069 C211.830254,54.7771729 210.933958,54.4790372 209.791621,54.4790372 C208.75473,54.4790372 208.016604,54.7420981 207.436648,55.1629956 C206.083418,56.3906132 204.976229,57.3902447 204.132657,58.1092779 C203.289085,58.7932363 202.357641,59.4596573 201.32075,60.1085409 C200.354157,60.7223497 199.282117,61.2133968 198.210077,61.4589203 C197.102889,61.757056 195.942977,61.9148925 194.64247,61.9148925 C194.343705,61.9148925 194.097663,61.9148925 193.834046,61.8798178 C192.2172,61.7745934 190.688225,61.3361585 189.334995,60.5294384 C187.718148,59.5999565 186.45279,58.2320397 185.451048,56.4607628 C184.519603,54.6193364 183.992371,52.4797742 183.957222,50.0946885 L205.222271,50.0946885 C208.069328,50.0946885 210.26613,49.6737911 211.830254,48.9372205 C213.411952,48.1305003 214.185226,46.4118357 214.185226,43.7636891 C214.185226,40.8875563 213.411952,38.0815732 211.882977,35.3282022 C210.354002,32.5748313 208.122051,30.3300447 205.046527,28.6113801 C202.006152,26.875178 198.385821,26.033383 194.132812,26.033383 L193.816472,26.033383 C190.670651,26.0684578 187.788446,26.5770423 185.240154,27.5591364 C182.551268,28.5938427 180.319317,30.0494464 178.438853,31.9259476 C176.663837,33.8375237 175.240309,36.117385 174.29129,38.8006064 C173.342271,41.4838277 172.832613,44.3950353 172.832613,47.4816167 C172.832613,54.1107519 174.783374,59.3018207 178.632172,63.177585 C182.287652,66.8253631 187.331511,68.7720139 193.781323,68.9649252 C194.132812,69 194.519449,69 194.906086,69 C197.911312,69 200.635347,68.6141773 202.99032,67.842532 C205.345292,67.0708866 207.296053,66.1063299 208.842602,64.9313244 C210.389151,63.7387816 211.566637,62.511164 212.304763,61.2484716 C213.078038,59.9857791 213.464675,58.8633859 213.464675,57.9163666 C213.570121,56.7764359 213.218633,55.9171036 212.515656,55.3559069 Z M187.190915,36.0472354 C188.913208,34.2408837 191.14516,33.3289392 193.851621,33.3289392 L193.88677,33.3289392 C196.698677,33.3289392 199.000926,34.205809 200.723219,35.9770858 C202.445513,37.7483627 203.482404,40.4666589 203.693297,44.0793622 L184.009945,44.0793622 C184.379008,40.5368084 185.415899,37.8535871 187.190915,36.0472354 Z M166.330077,54.4614998 C165.258038,54.4614998 164.519912,54.7245607 163.939956,55.1454582 C162.6043,56.3730758 161.479537,57.3727073 160.635965,58.0917405 C159.792393,58.7756989 158.896097,59.4421199 157.859206,60.0910035 C156.857464,60.7048123 155.820573,61.1958594 154.713385,61.4413829 C153.641345,61.7395186 152.446285,61.8973552 151.145777,61.8973552 C150.847012,61.8973552 150.60097,61.8973552 150.337354,61.8622804 C148.720507,61.757056 147.191533,61.3186211 145.838302,60.511901 C144.256604,59.5824191 142.956097,58.2145023 142.024653,56.4432254 C141.022911,54.601799 140.530827,52.4622368 140.495678,50.0771511 L161.725579,50.0771511 C164.537486,50.0771511 166.734289,49.6562537 168.333561,48.9196831 C169.88011,48.1129629 170.670959,46.3942983 170.670959,43.7461517 C170.670959,40.8700189 169.932834,38.0640358 168.403859,35.3106648 C166.874884,32.5572939 164.625358,30.3125073 161.567409,28.5938427 C158.527034,26.8576406 154.871555,26.0158456 150.653694,26.0158456 L150.302205,26.0158456 C147.156384,26.0509204 144.309328,26.5595049 141.725888,27.541599 C139.037001,28.5763053 136.80505,30.031909 134.959736,31.9084103 C133.14957,33.8199863 131.726042,36.0998476 130.777023,38.783069 C129.81043,41.4662904 129.318346,44.3774979 129.318346,47.4640793 C129.318346,54.0932145 131.286682,59.2842833 135.153054,63.1600476 C138.808534,66.8078257 143.834818,68.7544765 150.267056,68.9473878 C150.653694,68.9824626 151.005182,68.9824626 151.391819,68.9824626 C154.432194,68.9824626 157.121081,68.5966399 159.476053,67.8249946 C161.831026,67.0533492 163.781786,66.0887925 165.310761,64.913787 C166.892459,63.7212442 168.034796,62.4936266 168.808071,61.2309342 C169.581345,59.9682417 169.967982,58.8458485 169.967982,57.8988292 C169.967982,56.8290481 169.616494,55.9872531 168.931092,55.4085191 C168.333561,54.7420981 167.384543,54.4614998 166.330077,54.4614998 Z M143.659074,36.0472354 C145.381367,34.2408837 147.613319,33.3289392 150.31978,33.3289392 L150.354928,33.3289392 C153.166836,33.3289392 155.469085,34.205809 157.191378,35.9770858 C158.931246,37.7483627 159.950562,40.4666589 160.196604,44.0793622 L140.495678,44.0793622 C140.882316,40.5368084 141.954355,37.8535871 143.659074,36.0472354 Z M22.6064612,61.9148925 L22.6064612,36.7487312 C23.3445869,36.8188808 24.0651382,36.8539556 24.768115,36.8539556 C28.3005737,36.8539556 31.6045648,35.9244736 34.4164722,34.3110333 L34.4164722,61.9324299 C34.4164722,64.2824408 33.8716652,66.0361803 32.7644766,67.1936483 C31.6572881,68.3511164 30.23376,68.9298504 28.4587435,68.9298504 C26.7364502,68.9298504 25.3480709,68.3511164 24.2584568,67.1585736 C23.2039915,65.9484933 22.6064612,64.247366 22.6064612,61.9148925 Z M124.836869,11.9157803 C123.922999,10.881074 122.675215,10.3724896 121.075943,10.3724896 C119.423947,10.3724896 118.158589,10.9161488 117.262293,12.0560795 C116.348424,13.1609353 115.926637,14.8094504 115.926637,16.9314752 L115.926637,32.5046817 C113.888005,30.3125073 111.779074,28.7516792 109.61742,27.6994355 C108.26419,27.0505519 106.700066,26.5770423 104.960199,26.3490561 C103.958457,26.2262944 102.886417,26.1561448 101.726505,26.1561448 C96.3487323,26.1561448 91.955127,27.9975712 88.6511359,31.7154989 C85.3471447,35.3983518 83.6951491,40.5368084 83.6951491,47.1133314 C83.6951491,50.2174503 84.1169352,53.1286578 84.9253586,55.7943418 C85.7689308,58.4424884 86.9991403,60.7749619 88.615987,62.7742249 C90.2328338,64.7384131 92.1835945,66.2641664 94.3803972,67.3690223 C96.6123486,68.4388034 98.9848955,68.9824626 101.603484,68.9824626 C102.763396,68.9824626 103.905733,68.8772382 104.977773,68.6843269 C105.698324,68.5791025 106.331004,68.3861912 107.016406,68.1932798 C108.668402,67.6496206 110.214951,66.8604378 111.620904,65.8608064 C113.079581,64.8261001 114.467961,63.5107955 115.961786,61.8798178 L115.961786,62.914524 C115.961786,64.8611749 116.45387,66.334316 117.420463,67.4040971 C118.351908,68.4388034 119.652415,68.9824626 121.111092,68.9824626 C122.569769,68.9824626 123.835127,68.4738782 124.766571,67.4917841 C125.698016,66.4570778 126.154951,64.9663992 126.154951,62.9320614 L126.154951,16.3702786 C126.119802,14.4411652 125.698016,12.9154118 124.836869,11.9157803 Z M113.923153,54.8999347 C112.991709,56.8641229 111.691202,58.3548014 110.144653,59.3193581 C108.598104,60.2839148 106.840662,60.7398871 104.960199,60.7398871 L104.92505,60.7398871 C103.009438,60.7398871 101.304719,60.2313027 99.7054468,59.2492086 C98.0886,58.2145023 96.8583905,56.7238237 95.9445206,54.7245607 C95.0306507,52.7252977 94.5912902,50.2700625 94.5912902,47.4290045 C94.5912902,44.7107084 95.0130763,42.3256227 95.8566485,40.3263597 C96.7353696,38.2920219 97.9304302,36.7136564 99.5121281,35.6088005 C101.058677,34.4864073 102.851268,33.9602854 104.819603,33.9602854 L104.942624,33.9602854 C106.823087,33.9602854 108.527806,34.5039447 110.09193,35.5737257 C111.708776,36.6435068 112.974135,38.1867975 113.905579,40.1860605 C114.819449,42.1853235 115.293958,44.6405588 115.293958,47.4290045 C115.311533,50.4103616 114.819449,52.9006717 113.923153,54.8999347 Z M51.7800003,31.8733355 L51.7800003,33.1711027 C53.7307611,30.7158674 55.7869683,28.9445906 58.0189198,27.7695851 C60.321169,26.6471919 62.9046089,26.0509204 65.8571116,26.0509204 C68.7041679,26.0509204 71.2700334,26.6647292 73.5195593,27.8572721 C75.7866596,29.0498149 77.4386552,30.7684796 78.5282693,32.9957287 C79.266395,34.2934959 79.7233299,35.7140249 79.9166486,37.1871661 C80.1099672,38.6427698 80.2329881,40.5718832 80.2329881,42.9043567 L80.2329881,62.4760892 C80.2329881,64.6156513 79.7233299,66.1940169 78.7040135,67.2637979 C77.7374203,68.3686538 76.4017643,68.912313 74.8200664,68.912313 C73.2032197,68.912313 71.9027125,68.3686538 70.8658217,67.2287231 C69.8289308,66.1238673 69.336847,64.5455018 69.336847,62.4760892 L69.336847,44.9386945 C69.336847,41.448753 68.8447632,38.8006064 67.8430212,36.9591799 C66.8764281,35.1177535 64.8729441,34.1882716 61.8852925,34.1882716 C59.9345317,34.1882716 58.194664,34.7670056 56.6129661,35.8718615 C55.0312682,36.9942547 53.8362076,38.520008 53.0805075,40.519271 C52.5708493,42.0976366 52.3072329,45.0088441 52.3072329,49.3405806 L52.3072329,62.4936266 C52.3072329,64.6507261 51.7975747,66.2115542 50.7606839,67.2988727 C49.723793,68.3686538 48.4232859,68.912313 46.8064391,68.912313 C45.2247412,68.912313 43.9593829,68.3686538 42.9224921,67.2287231 C41.8856012,66.1238673 41.3935174,64.5455018 41.3935174,62.4760892 L41.3935174,32.0487094 C41.3935174,30.0494464 41.8504524,28.5236931 42.7467478,27.5591364 C43.6254689,26.5595049 44.8556784,26.033383 46.4373763,26.033383 C47.3688206,26.033383 48.2123928,26.2262944 48.9856673,26.6822666 C49.7589419,27.1382389 50.3740466,27.7871225 50.8661304,28.6464548 C51.5866817,29.5934742 51.7800003,30.6457178 51.7800003,31.8733355 Z M22.6767589,1.62132964 C29.9877181,-0.939129979 38.3531426,-0.798830821 44.5920621,4.46238758 C45.7519739,5.53216866 47.0876299,6.84747326 47.5972881,8.44337617 C48.2475417,10.4075644 45.4004854,8.25046483 44.9786993,7.95232912 C42.9400665,6.65456192 40.9014336,5.56724345 38.5991845,4.81313548 C26.2970897,1.13028259 14.6452484,7.77695518 7.40458692,18.1590928 C4.43450975,22.7188154 2.44860016,27.5240616 0.831753417,32.8203548 C0.673583626,33.3990888 0.515413836,34.1531968 0.181499834,34.6617812 C-0.134839746,35.2405152 0.0584788864,33.1184905 0.0584788864,33.0132661 C0.322095203,30.8210918 0.779030153,28.7166044 1.32383721,26.5945797 C4.68055165,15.3355723 12.0618085,5.93552874 22.6767589,1.62132964 Z M36.8593168,21.8945579 C36.8593168,26.6822666 32.9753697,30.5755683 28.1775527,30.5755683 C23.3797357,30.5755683 19.4957887,26.699804 19.4957887,21.8945579 C19.4957887,17.0893118 23.3797357,13.2135475 28.1775527,13.2135475 C32.9753697,13.2135475 36.8593168,17.0893118 36.8593168,21.8945579 Z" id="Shape"></path>
        </g>
    </g>
</svg>