<?xml version="1.0" encoding="UTF-8"?>
<svg width="350px" height="100px" viewBox="0 0 350 100" version="1.1" xmlns="http://www.w3.org/2000/svg" xmlns:xlink="http://www.w3.org/1999/xlink">
    <title>logo-ac4d</title>
    <g id="logo-ac4d" stroke="none" stroke-width="1" fill="none" fill-rule="evenodd">
        <g id="Group-2" transform="translate(9, 18)">
            <text id="Austin-Center-for-De" font-family="MetaPro-Book, MetaPro" font-size="27.252809" font-weight="400" fill="#00296B">
                <tspan x="174.236667" y="33.8825443">Austin Center </tspan>
                <tspan x="174.236667" y="61.8825443">for Design</tspan>
            </text>
            <line x1="150.995833" y1="3.9546517e-17" x2="150.995833" y2="70" id="Line" stroke="#00296B" stroke-width="2.2247191" stroke-linecap="square"></line>
            <g id="Group" transform="translate(0, 4.5833)" fill="#00296B">
                <path d="M19.699245,36.7571679 C11.2924883,41.5220194 9.23206456,44.5596122 9.23206456,48.4168729 C9.23206456,51.2928012 10.7147728,52.4414707 13.5179737,52.4414707 C16.0735822,52.4414707 18.134006,50.5553837 19.699245,48.340295 L19.699245,36.7571679 Z M0.660246294,27.9677186 C1.15543102,19.0166048 6.84151764,14.1666667 15.4958667,14.1666667 C24.0648391,14.1666667 28.9284637,18.1118502 28.9284637,26.1610458 L28.9284637,54.497731 C28.9284637,55.895988 29.2585869,57.7026609 29.5033333,59.1803321 L20.6867686,59.1803321 C20.6042378,57.9494121 20.2741147,56.7950701 20.1915839,55.728651 C16.7309826,58.525165 13.8480968,60 9.39428025,60 C3.13332401,60 0,55.728651 0,50.0618812 C0,40.3676774 6.4288637,35.0299092 19.699245,30.0211427 L19.699245,27.394802 C19.699245,23.6963696 18.2165368,21.725196 15.1657435,21.725196 C10.9623652,21.725196 10.0545265,24.1898721 9.88946497,27.9677186 L0.660246294,27.9677186 L0.660246294,27.9677186 Z" id="Fill-1"></path>
                <path d="M52.8403046,30.1033932 L52.8403046,28.9518874 C52.8403046,23.8608705 51.0311103,21.725196 47.7341667,21.725196 C44.4400676,21.725196 42.6251841,23.8608705 42.6251841,28.9518874 L42.6251841,45.2147793 C42.6251841,50.3114686 44.4400676,52.4414707 47.7341667,52.4414707 C51.0311103,52.4414707 52.8403046,50.3114686 52.8403046,45.2147793 L52.8403046,42.4239377 L62.0683333,42.4239377 L62.0683333,43.5726073 C62.0683333,53.2639748 58.2792661,60 47.7341667,60 C37.1919119,60 33.4,53.2639748 33.4,43.5726073 L33.4,30.5968956 C33.4,20.9026918 37.1919119,14.1666667 47.7341667,14.1666667 C58.1142766,14.1666667 61.9033439,20.6587768 62.0683333,30.1033932 L52.8403046,30.1033932" id="Fill-2"></path>
                <path d="M82.5269767,43.0855884 L82.4840997,27.9974553 L74.8777103,43.0855884 L82.5269767,43.0855884 Z M82.5098259,49.9526233 L65.965,49.9526233 L65.965,43.0855884 L83.3387823,14.1666667 L91.9970887,14.1666667 L91.9513532,43.0855884 L95.19,43.0855884 L95.19,50.0436528 L91.9513532,50.0436528 L91.9513532,59.9544853 L82.5269767,60 L82.5098259,49.9526233 L82.5098259,49.9526233 Z" id="Fill-3"></path>
                <path d="M118.177229,24.4323604 C116.352584,23.1034631 114.692782,22.1075015 112.865295,22.1075015 C110.378435,22.1075015 108.386104,23.4363988 108.386104,29.335337 L108.386104,45.9593585 C108.386104,51.8582967 110.378435,53.1900396 112.865295,53.1900396 C114.692782,53.1900396 116.352584,52.1912324 118.177229,50.8594895 L118.177229,24.4323604 Z M118.677444,60.0024168 L118.677444,55.3470078 L118.509758,55.3470078 C115.440262,59.2540228 113.197824,60.8333333 108.550947,60.8333333 C102.741641,60.8333333 99.0866667,56.5137057 99.0866667,48.36674 L99.0866667,26.9279555 C99.0866667,18.7809898 102.741641,14.4613621 108.550947,14.4613621 C112.615188,14.4613621 114.525097,16.1231952 118.177229,19.1139255 L118.177229,0 L127.476667,0 L127.476667,60.0024168 L118.677444,60.0024168 L118.677444,60.0024168 Z" id="Fill-4"></path>
            </g>
        </g>
    </g>
</svg>