<?xml version="1.0" encoding="UTF-8"?>
<svg width="350px" height="100px" viewBox="0 0 350 100" version="1.1" xmlns="http://www.w3.org/2000/svg" xmlns:xlink="http://www.w3.org/1999/xlink">
    <title>logo-forthright</title>
    <g id="logo-forthright" stroke="none" stroke-width="1" fill="none" fill-rule="evenodd">
        <g id="logo_final-copy" transform="translate(5, 21)">
            <g id="Group-Copy" transform="translate(-5.2407, 0)"></g>
            <path d="M17.1348358,60.0212766 L17.1348358,27.6276596 L21.9563264,27.6276596 L21.9563264,17.2765957 L17.1348358,17.2765957 L17.1348358,16.2340426 C17.1348358,13.8014184 17.6664361,12.25 18.7296366,11.5797872 C19.7928371,10.9095745 21.0909307,10.5744681 22.6239174,10.5744681 L22.6239174,10.5744681 L22.6239174,0 C20.5469676,0 18.4452923,0.161347518 16.3188913,0.484042553 C14.1924903,0.806737589 12.2886196,1.50177305 10.6072793,2.56914894 C8.92593901,3.63652482 7.55366861,5.17553191 6.49046812,7.18617021 C5.42726763,9.19680851 4.89566738,11.8900709 4.89566738,15.2659574 L4.89566738,15.2659574 L4.89566738,17.2765957 L0,17.2765957 L0,27.6276596 L4.89566738,27.6276596 L4.89566738,60.0212766 L17.1348358,60.0212766 Z" id="Path" fill="#002478" fill-rule="nonzero"></path>
            <path d="M46.6611928,16.5591398 C49.9440677,16.5591398 53.0103641,17.1172441 55.860082,18.2334528 C58.7097998,19.3496615 61.1605572,20.875906 63.212354,22.8121864 C65.2641509,24.7484667 66.8713918,27.0264436 68.0340766,29.6461171 C69.1967615,32.2657905 69.778104,35.079092 69.778104,38.0860215 C69.778104,41.092951 69.1967615,43.9062525 68.0340766,46.5259259 C66.8713918,49.1455994 65.2641509,51.4235763 63.212354,53.3598566 C61.1605572,55.296137 58.7097998,56.8223815 55.860082,57.9385902 C53.0103641,59.0547989 49.9440677,59.6129032 46.6611928,59.6129032 C43.3783178,59.6129032 40.3234203,59.0547989 37.4965002,57.9385902 C34.6695801,56.8223815 32.2302216,55.296137 30.1784248,53.3598566 C28.1266279,51.4235763 26.519387,49.1455994 25.3567022,46.5259259 C24.1940173,43.9062525 23.6126748,41.092951 23.6126748,38.0860215 C23.6126748,35.079092 24.1940173,32.2657905 25.3567022,29.6461171 C26.519387,27.0264436 28.1266279,24.7484667 30.1784248,22.8121864 C32.2302216,20.875906 34.6695801,19.3496615 37.4965002,18.2334528 C40.3234203,17.1172441 43.3783178,16.5591398 46.6611928,16.5591398 Z M46.5847367,27.3225806 C43.5666776,27.3225806 41.0444425,28.362237 39.0180314,30.4415497 C36.9916203,32.5208623 35.9784148,35.042801 35.9784148,38.0073656 C35.9784148,40.9719302 36.9916203,43.4938688 39.0180314,45.5731815 C41.0444425,47.6524942 43.5666776,48.6921505 46.5847367,48.6921505 C49.6459109,48.6921505 52.1897036,47.6524942 54.2161147,45.5731815 C56.2425258,43.4938688 57.2557313,40.9719302 57.2557313,38.0073656 C57.2557313,35.042801 56.2425258,32.5208623 54.2161147,30.4415497 C52.1897036,28.362237 49.6459109,27.3225806 46.5847367,27.3225806 Z" id="Combined-Shape" fill="#002478" fill-rule="nonzero"></path>
            <path d="M86.1391857,59.5272249 L86.1391857,37.4102036 C86.1391857,36.6158774 86.3988044,35.7594944 86.9180419,34.8410547 C87.4372793,33.922615 88.1543215,33.0786433 89.0691685,32.3091398 C89.9840154,31.5396362 91.1090299,30.9066575 92.4442119,30.4102036 C93.7793939,29.9137497 95.2629295,29.6655228 96.8948186,29.6655228 C97.2409769,29.6655228 97.661312,29.7027568 98.1558238,29.7772249 C98.6503357,29.851693 99.0212196,29.9385724 99.2684755,30.0378632 L99.2684755,30.0378632 L99.2684755,16.5591398 L97.8591167,16.5591398 C96.2766788,16.5591398 94.8178688,16.8942462 93.4826868,17.5644589 C92.1475048,18.2346717 90.9483135,19.066232 89.885113,20.0591398 C88.8219125,21.0520476 87.9194284,22.0946008 87.1776606,23.1867994 C86.4358928,24.2789979 85.8919298,25.2222604 85.5457715,26.0165866 L85.5457715,26.0165866 L85.5457715,16.782544 L73.9000173,16.782544 L73.9000173,59.5272249 L86.1391857,59.5272249 Z" id="Path" fill="#002478" fill-rule="nonzero"></path>
            <polygon id="Path" fill="#002478" fill-rule="nonzero" points="120.17573 60.0212766 120.17573 27.6276596 125.145575 27.6276596 125.145575 17.2765957 120.17573 17.2765957 120.17573 4.69148936 107.936562 6.92553191 107.936562 17.2765957 102.966718 17.2765957 102.966718 27.6276596 107.936562 27.6276596 107.936562 60.0212766"></polygon>
            <path d="M141.316112,60.0212766 L141.316112,35.0744681 C141.316112,33.8333333 141.563368,32.7163121 142.05788,31.7234043 C142.552392,30.7304965 143.20762,29.8865248 144.023565,29.1914894 C144.839509,28.4964539 145.741993,27.9751773 146.731017,27.6276596 C147.720041,27.2801418 148.684339,27.106383 149.623911,27.106383 C151.849215,27.106383 153.740723,27.7641844 155.298435,29.0797872 C156.856147,30.3953901 157.635004,32.641844 157.635004,35.8191489 L157.635004,35.8191489 L157.635004,60.0212766 L169.948349,60.0212766 L169.948349,32.0212766 C169.948349,29.5886525 169.565102,27.391844 168.798609,25.4308511 C168.032115,23.4698582 166.968915,21.8191489 165.609007,20.4787234 C164.2491,19.1382979 162.629573,18.0957447 160.750428,17.3510638 C158.871283,16.606383 156.843785,16.2340426 154.667932,16.2340426 C151.404154,16.2340426 148.573074,16.9414894 146.174691,18.356383 C143.776309,19.7712766 141.958978,21.248227 140.722698,22.787234 L140.722698,22.787234 L140.722698,1.93617021 L129.076944,1.93617021 L129.076944,60.0212766 L141.316112,60.0212766 Z" id="Path" fill="#002478" fill-rule="nonzero"></path>
            <path d="M187.973306,60.0212766 L187.973306,37.9042553 C187.973306,37.1099291 188.232925,36.2535461 188.752162,35.3351064 C189.2714,34.4166667 189.988442,33.572695 190.903289,32.8031915 C191.818136,32.0336879 192.94315,31.4007092 194.278332,30.9042553 C195.613514,30.4078014 197.09705,30.1595745 198.728939,30.1595745 C199.075097,30.1595745 199.495432,30.1968085 199.989944,30.2712766 C200.484456,30.3457447 200.85534,30.4326241 201.102596,30.5319149 L201.102596,30.5319149 L201.102596,17.0531915 L199.693237,17.0531915 C198.110799,17.0531915 196.651989,17.3882979 195.316807,18.0585106 C193.981625,18.7287234 192.782434,19.5602837 191.719233,20.5531915 C190.656033,21.5460993 189.753549,22.5886525 189.011781,23.6808511 C188.270013,24.7730496 187.72605,25.7163121 187.379892,26.5106383 L187.379892,26.5106383 L187.379892,17.2765957 L175.734137,17.2765957 L175.734137,60.0212766 L187.973306,60.0212766 Z" id="Path" fill="#002478" fill-rule="nonzero"></path>
            <polygon id="Path" fill="#002478" fill-rule="nonzero" points="217.165989 59.8102837 217.165989 17.0656028 204.926821 17.0656028 204.926821 59.8102837"></polygon>
            <path d="M242.048177,15.5638298 C244.718541,15.5638298 247.314729,16.1843972 249.836739,17.4255319 C252.35875,18.6666667 254.559327,20.3049645 256.438472,22.3404255 L256.438472,17.2765957 L268.23258,17.2765957 L268.23258,53.8404255 L268.229671,54.3746003 C268.142383,62.337864 266.091129,68.0800185 262.075908,71.6010638 C257.971459,75.2003546 251.814787,77 243.60589,77 C241.380586,77 239.105832,76.8882979 236.781626,76.6648936 C234.45742,76.4414894 232.034312,76.0815603 229.512302,75.5851064 L229.512302,65.0106383 L230.19818,65.1556959 C232.689455,65.6733525 234.921025,66.0345745 236.892891,66.2393617 C239.044018,66.462766 241.158056,66.5744681 243.235006,66.5744681 C246.993296,66.5744681 250.05927,65.7180851 252.432926,64.0053191 C254.806583,62.2925532 255.993412,59.0531915 255.993412,54.287234 L255.993412,52.0531915 L255.623352,52.4157683 C253.877176,54.085398 251.861765,55.4414894 249.57712,56.4840426 C247.129287,57.6010638 244.619639,58.1595745 242.048177,58.1595745 C239.427265,58.1595745 236.892891,57.6507092 234.445058,56.6329787 C231.997224,55.6152482 229.846097,54.1879433 227.991678,52.3510638 C226.137258,50.5141844 224.653723,48.2801418 223.541071,45.6489362 C222.42842,43.0177305 221.872094,40.1382979 221.872094,37.0106383 C221.872094,33.7836879 222.42842,30.8421986 223.541071,28.1861702 C224.653723,25.5301418 226.137258,23.2712766 227.991678,21.4095745 C229.846097,19.5478723 231.997224,18.108156 234.445058,17.0904255 C236.892891,16.072695 239.427265,15.5638298 242.048177,15.5638298 Z M245.386133,26.287234 C242.517964,26.287234 240.020679,27.3421986 237.894278,29.4521277 C235.767877,31.5620567 234.704676,34.106383 234.704676,37.0851064 C234.704676,39.964539 235.767877,42.4468085 237.894278,44.5319149 C240.020679,46.6170213 242.517964,47.6595745 245.386133,47.6595745 C248.303752,47.6595745 250.801037,46.6170213 252.877987,44.5319149 C254.954937,42.4468085 255.993412,39.964539 255.993412,37.0851064 C255.993412,34.106383 254.954937,31.5620567 252.877987,29.4521277 C250.801037,27.3421986 248.303752,26.287234 245.386133,26.287234 Z" id="Combined-Shape" fill="#002478" fill-rule="nonzero"></path>
            <path d="M286.191603,60.1536643 L286.191603,35.2068558 C286.191603,33.965721 286.438858,32.8486998 286.93337,31.855792 C287.427882,30.8628842 288.08311,30.0189125 288.899055,29.3238771 C289.715,28.6288416 290.617484,28.107565 291.606507,27.7600473 C292.595531,27.4125296 293.559829,27.2387707 294.499402,27.2387707 C296.724705,27.2387707 298.616213,27.8965721 300.173925,29.2121749 C301.731638,30.5277778 302.510494,32.7742317 302.510494,35.9515366 L302.510494,35.9515366 L302.510494,60.1536643 L314.823839,60.1536643 L314.823839,32.1536643 C314.823839,29.7210402 314.440592,27.5242317 313.674099,25.5632388 C312.907606,23.6022459 311.844405,21.9515366 310.484498,20.6111111 C309.12459,19.2706856 307.505064,18.2281324 305.625919,17.4834515 C303.746773,16.7387707 301.719275,16.3664303 299.543423,16.3664303 C296.279644,16.3664303 293.448564,17.0738771 291.050182,18.4887707 C288.651799,19.9036643 286.834468,21.3806147 285.598188,22.9196217 L285.598188,22.9196217 L285.598188,2.06855792 L273.952434,2.06855792 L273.952434,60.1536643 L286.191603,60.1536643 Z" id="Path" fill="#00296B" fill-rule="nonzero"></path>
            <polygon id="Path" fill="#002478" fill-rule="nonzero" points="336.030156 60.0212766 336.030156 27.6276596 341 27.6276596 341 17.2765957 336.030156 17.2765957 336.030156 4.69148936 323.790987 6.92553191 323.790987 17.2765957 318.821143 17.2765957 318.821143 27.6276596 323.790987 27.6276596 323.790987 60.0212766"></polygon>
            <polygon id="Path-Copy" fill="#F93B6B" fill-rule="nonzero" points="217.165989 11.9728132 217.165989 2.06855792 204.926821 2.06855792 204.926821 11.9728132"></polygon>
        </g>
    </g>
</svg>