<?xml version="1.0" encoding="UTF-8"?>
<svg width="350px" height="100px" viewBox="0 0 350 100" version="1.1" xmlns="http://www.w3.org/2000/svg" xmlns:xlink="http://www.w3.org/1999/xlink">
    <title>logo-orly</title>
    <g id="logo-orly" stroke="none" stroke-width="1" fill="none" fill-rule="evenodd">
        <g id="Group" transform="translate(42, 3)" fill="#00296B" fill-rule="nonzero">
            <path d="M96.0632491,54.1522535 L106.929077,54.1522535 C110.831428,54.1522535 112.920471,56.6216129 112.920471,61.0673986 C112.920471,65.4333762 109.994876,67.405108 106.372933,67.405108 L96.0632491,67.405108 L96.0632491,54.1522535 Z M83.1037049,79.6720965 L108.461976,79.6720965 C117.238761,79.6720965 125.880015,74.9821916 125.880015,63.1236332 C125.880015,56.7859239 123.300257,50.7768365 118.075313,48.3872853 L118.075313,48.2229743 C123.370359,46.7441755 124.903259,39.7445276 125.323871,34.148565 C125.459402,31.6792056 124.146156,23.0317533 125.884688,20.891016 L113.065348,20.891016 C111.953062,22.8674424 113.270981,28.6324106 113.130777,30.280215 C112.780267,36.2047996 111.943715,42.2983898 105.886892,42.2983898 L96.0632491,42.2983898 L96.0632491,20.891016 L83.1037049,20.891016 L83.1037049,79.6720965" id="path3319" transform="translate(104.4942, 50.2816) scale(-1, 1) rotate(-180) translate(-104.4942, -50.2816)"></path>
            <path d="M156.43987,62.710468 C156.220217,67.4848758 153.219846,71.4377285 149.051107,71.4377285 C144.662715,71.4377285 141.73712,67.8980005 141.008058,62.710468 L156.43987,62.710468 Z M141.008058,54.8892653 C141.227711,49.0444889 144.223408,45.1761389 149.490414,45.1761389 C152.490784,45.1761389 155.416379,46.7394405 156.584748,49.8660438 L168.217025,49.8660438 C165.95039,39.9886064 157.827892,35.7071316 149.345536,35.7071316 C136.984196,35.7071316 128.571943,44.1057702 128.571943,58.4289933 C128.571943,71.5175367 137.858136,80.9067358 149.051107,80.9067358 C162.655591,80.9067358 169.460169,69.3767994 168.875985,54.8892653 L141.008058,54.8892653" id="path3323" transform="translate(148.7413, 58.3069) scale(-1, 1) rotate(-180) translate(-148.7413, -58.3069)"></path>
            <polygon id="path3325" points="173.100805 79.6720477 184.943397 79.6720477 184.943397 36.9465112 173.100805 36.9465112"></polygon>
            <polygon id="path3327" points="192.322786 79.6720477 204.165399 79.6720477 204.165399 20.890975 192.322786 20.890975"></polygon>
            <polygon id="path3329" points="210.329702 79.6720477 222.172275 79.6720477 222.172275 20.890975 210.329702 20.890975"></polygon>
            <path d="M250.717863,47.485908 C247.86237,38.1014036 243.614182,36.9465321 235.603847,36.9465321 L230.028392,36.9465321 L230.028392,48.3074629 L234.141049,48.3074629 C236.856338,48.3074629 238.875279,50.1195783 238.875279,53.0818706 C238.875279,55.3916136 236.575929,61.9734421 235.879582,64.2831851 L226.546654,94 L239.085585,94 L245.908858,66.1751087 L246.049062,66.1751087 L252.877008,94 L265,94 L250.717863,47.485908" id="path3333" transform="translate(245.7733, 65.4733) scale(-1, 1) rotate(-180) translate(-245.7733, -65.4733)"></path>
            <path d="M34.2191786,74.7051229 C22.161615,74.7051229 15.6888531,64.447423 15.6888531,45.0962838 C15.6888531,30.9608447 19.9043269,11.3139457 35.8876089,11.3139457 C48.7303162,11.3139457 53.7309337,23.0786121 53.7309337,41.8523155 C53.7309337,61.6635255 46.3795587,74.7051229 34.2191786,74.7051229 Z M69.4197868,43.359282 C69.4197868,18.097642 55.1049351,2.91530714 34.0228927,2.91530714 C14.3148517,2.91530714 0,18.2103124 0,42.4297513 C0,65.3722591 14.5111376,83.1037615 35.0043223,83.1037615 C55.399364,83.1037615 69.4197868,66.8792255 69.4197868,43.359282" id="path3337" transform="translate(34.7099, 43.0095) scale(-1, 1) rotate(-180) translate(-34.7099, -43.0095)"></path>
            <path d="M36.1679891,30.5507244 C36.4250302,30.7525921 36.6540304,30.9779329 36.8736837,31.2126629 C36.7101121,30.9403761 36.4857854,30.7150353 36.1679891,30.5507244 Z M35.9249685,54.3805115 C35.8922541,54.7560795 35.8408459,55.1269528 35.7754173,55.4978262 C35.8408459,55.4555748 35.910948,55.4133234 35.9763767,55.371072 C35.9670297,55.04245 35.9483358,54.7091335 35.9249685,54.3805115 Z M49.3051253,48.9300815 C49.3051253,51.3900516 47.2441231,53.3852564 44.7064266,53.3852564 C43.6595684,53.3852564 42.6968327,53.0425506 41.9210359,52.4698095 C42.1500362,52.9815208 42.3229547,53.507316 42.3743629,54.0659733 C42.7202,54.6903551 42.916486,55.4039342 42.916486,56.1644593 C42.916486,58.6244295 40.8601573,60.6196343 38.3224608,60.6196343 C37.0793166,60.6196343 35.9576828,60.1407851 35.1304778,59.3661762 C34.2939259,60.2065095 33.1208839,60.7323046 31.8169846,60.7323046 C29.279288,60.7323046 27.2229594,58.7417944 27.2229594,56.2818243 C27.2229594,54.972031 27.8071436,53.7983812 28.737165,52.9815208 C28.8212876,52.8125153 28.9100836,52.6388151 29.0035531,52.4745041 C28.9755122,52.4698095 28.9474714,52.4698095 28.9194305,52.4651149 C28.1436338,53.0425506 27.1808981,53.3852564 26.1293664,53.3852564 C23.5869964,53.3852564 21.5306677,51.3900516 21.5306677,48.9300815 C21.5306677,47.6437612 22.1008316,46.4841951 23.0028121,45.6720294 C22.2363623,44.8739475 21.7643414,43.8082734 21.7643414,42.6346235 C21.7643414,40.6910593 23.0495468,39.0432549 24.8394875,38.4329569 C24.9142631,38.3672325 24.9843652,38.3015082 25.0684877,38.245173 C25.9798152,37.5691506 27.2042655,37.4893424 28.2090624,37.9822754 C28.7605324,38.0057484 29.2979819,38.2170054 29.7232681,38.6301301 C29.732615,38.6395193 29.741962,38.6489085 29.7513089,38.6582977 C30.1485543,38.7756627 30.5224322,38.9634467 30.8682693,39.2357335 C30.7888202,39.1793983 30.7140446,39.1277577 30.6345956,39.0714225 C31.013147,39.2122605 31.3402902,39.428212 31.6393925,39.6770258 C32.2562911,39.8131692 32.8918837,39.897672 33.4807414,40.132402 C33.3919454,40.0948452 33.3078229,40.0666776 33.2190268,40.0291208 C33.5648639,40.0478992 33.9153745,40.0432046 34.2658851,40.0713722 C34.284579,38.7568843 34.3126198,37.4423964 34.2191503,36.123214 C34.2004564,35.841538 34.0882931,35.5692512 34.018191,35.2828807 C34.0275379,35.3345213 34.0368848,35.3814673 34.0462318,35.4331078 C33.7891907,34.8697559 33.5601905,34.3017094 33.2704351,33.7571358 C33.3452107,33.836944 33.4386801,33.9026684 33.5321496,33.9683928 C33.4293332,33.88389 33.3358637,33.789998 33.2423942,33.696106 C33.1956595,33.6162978 33.1582717,33.5364896 33.1115369,33.4566815 C33.1255574,33.5364896 33.1582717,33.602214 33.200333,33.6632438 C32.8451489,33.3017597 32.5553935,32.8792457 32.4058423,32.3393668 C32.4058423,32.3863128 32.4058423,32.4332588 32.4058423,32.4802048 C31.8496989,31.3112495 32.3357402,29.921648 33.4900884,29.3582961 C34.64911,28.8043333 36.0371318,29.2925717 36.5932753,30.4521378 C36.6306631,30.5178622 36.6633774,30.5882811 36.7007652,30.6587001 C37.8504399,31.902769 38.4206037,33.6116032 38.7430734,35.3063537 C39.0375023,36.8320985 38.9393594,38.2968136 38.9019716,39.7756124 C40.6778918,38.5409327 42.7529144,38.3062028 44.8139165,38.4282623 C44.8933656,38.4329569 44.9728146,38.4282623 45.0522637,38.4329569 L45.173774,38.4329569 C46.0103259,38.4329569 46.7440614,38.8883331 47.1506537,39.56905 C48.445206,40.3577427 49.3051253,41.7473442 49.3051253,43.3341188 C49.3051253,44.3950983 48.9219004,45.3668804 48.2816344,46.1321001 C48.9219004,46.8973199 49.3051253,47.869102 49.3051253,48.9300815" id="path3341" transform="translate(35.4179, 44.9311) scale(-1, 1) rotate(-180) translate(-35.4179, -44.9311)"></path>
            <path d="M171.834291,24.571572 C171.834291,28.6230114 175.10105,31.9045365 179.134258,31.9045365 C183.162793,31.9045365 186.429552,28.6230114 186.429552,24.571572 C186.429552,20.5248272 183.162793,17.2433022 179.134258,17.2433022 C175.10105,17.2433022 171.834291,20.5248272 171.834291,24.571572" id="path3353" transform="translate(179.1319, 24.5739) scale(-1, 1) rotate(-180) translate(-179.1319, -24.5739)"></path>
            <path d="M84.8702801,15.3231728 C84.8702801,19.365223 81.608195,22.6420535 77.5843337,22.6420535 C73.5604723,22.6420535 70.2937138,19.365223 70.2937138,15.3231728 C70.2937138,15.0086347 70.3217547,14.6987911 70.3638159,14.3889475 C70.3731629,13.9946012 70.4759793,13.398387 70.8405103,12.5580537 C70.905939,12.3890481 70.985388,12.2294317 71.0648371,12.0698154 C71.0695106,12.051037 71.0788575,12.0369532 71.0882045,12.0228694 C71.1489596,11.9008098 71.2143883,11.7787502 71.2798169,11.6613852 C71.9574707,10.4079271 73.1118188,8.7648173 75.0793515,6.63346912 L72.345369,4.57253993 L75.0793515,0 C75.0793515,0 83.6505033,5.59596262 84.7347493,13.9288768 C84.8235453,14.3795583 84.8702801,14.8443237 84.8702801,15.3231728" id="path3357" transform="translate(77.582, 11.321) scale(-1, 1) rotate(-180) translate(-77.582, -11.321)"></path>
        </g>
    </g>
</svg>