<?xml version="1.0" encoding="UTF-8"?>
<svg width="350px" height="100px" viewBox="0 0 350 100" version="1.1" xmlns="http://www.w3.org/2000/svg" xmlns:xlink="http://www.w3.org/1999/xlink">
    <title>logo-axs</title>
    <g id="logo-axs" stroke="none" stroke-width="1" fill="none" fill-rule="evenodd">
        <g id="axs-logo-vector" transform="translate(104, 30)" fill="#00296B" fill-rule="nonzero">
            <path d="M131.16214,21.8687623 C128.546576,21.1672201 125.451091,20.465678 122.835527,19.7399447 C122.307615,19.5947981 116.308615,18.0707582 116.308615,14.5146652 C116.308615,10.4747501 121.203799,9.86997236 124.539243,9.86997236 C128.618564,9.86997236 133.873688,11.4665855 135.409432,12.1197455 C136.945176,12.7729054 137.545076,12.240701 138.312948,11.2972478 L143.112148,5.49138168 C143.4001,5.12851505 143.4001,4.35439957 142.584236,3.99153294 C142.584236,3.99153294 133.8017,0.0725733262 124.923179,0.0725733262 C120.363939,0.0725733262 116.572571,0.38705774 112.853191,1.98367091 C109.157807,3.55609298 103.950675,7.42667038 103.950675,15.4097363 C103.950675,26.1747796 111.941343,28.7632283 115.828695,29.9485926 C118.804199,30.8436636 127.298784,32.3435124 129.674388,34.0852722 C131.4021,35.3432098 131.906016,37.3510719 131.52208,39.2621695 C131.066156,41.5119426 128.52258,43.4472313 122.451591,43.4472313 C117.604399,43.4472313 114.460923,42.2134847 109.733711,39.8669472 C108.509915,39.2621695 108.341943,39.2379783 107.622063,40.1088583 L102.630895,46.0356799 C101.887019,46.9307509 101.335111,47.6322931 102.582903,48.3822174 C104.958507,49.7853017 115.084819,53.9945547 123.819363,53.9945547 C133.633728,53.9945547 144,50.1239773 144,37.3268808 C143.976004,31.1823391 141.696384,24.6749309 131.16214,21.8687623 M29.5630728,40.0362849 C27.6433928,42.6731158 24.9558407,44.0036268 21.4764206,44.0036268 C19.1728045,44.0036268 17.3491085,43.3262757 16.0053324,41.9715736 C14.6615564,40.6168715 13.9896684,38.8025384 13.9896684,36.5043831 C13.9896684,33.4321122 14.9735044,31.2549125 16.9171805,29.9969748 C18.8608565,28.7390372 25.0518247,28.255215 25.0518247,28.255215 C26.2276287,28.1584505 28.1713048,28.0858772 29.3471088,28.0858772 L30.2829528,28.0858772 C31.4587569,28.0858772 32.4425929,28.3761705 32.4425929,29.3921971 C32.4425929,33.4079211 31.4827529,37.3994541 29.5630728,40.0362849 M23.3241126,0 C13.0058324,0 6.11898017,2.99969748 4.60723213,3.65285742 C3.6473921,4.06410626 3.6953841,4.86241285 3.98333611,5.20108837 L8.78253624,11.0069545 C9.83836027,12.2890832 10.4622563,12.2648921 11.4460923,11.9020255 C11.4700883,11.9020255 16.2932845,9.82159014 23.3241126,9.82159014 C26.3236127,9.82159014 28.5792368,10.3779856 30.1149808,11.4665855 C32.2026329,12.9422432 32.2506249,15.4581185 32.3946009,16.9821583 C32.4905849,17.9981849 31.4587569,18.5545804 30.2589568,18.5545804 L23.3001166,18.5545804 C15.3334444,18.5545804 9.47842026,19.9576647 5.66305616,22.7880244 C1.89568405,25.5700019 0,29.9485926 0,35.8512231 C0,41.3184137 1.58373604,45.5518577 4.77520413,48.5999374 C7.96667222,51.6480171 12.5259123,53.172057 18.1169805,53.172057 C23.7560407,53.172057 28.4352608,51.188386 32.4185969,46.1566354 C33.4264289,44.8745067 34.0983169,45.9389155 34.0983169,45.9389155 L38.5615731,51.2367683 C38.5615731,51.2367683 38.5855691,51.2851505 38.6575571,51.3335327 C38.8255291,51.5028705 39.2814531,51.8657371 39.9053491,51.8657371 L44.2486252,51.8657371 C45.0164973,51.8657371 45.4484253,51.4544882 45.4724213,50.8739016 L45.4724213,22.9573622 C45.4724213,14.3453275 43.8166972,8.34593251 40.5052491,5.0075595 C37.217797,1.6691865 31.4827529,0 23.3241126,0 M104.622563,2.15300868 C105.294451,1.35470209 105.006499,0.701542153 103.950675,0.701542153 L82.0903183,0.701542153 C81.3224463,0.701542153 80.3866022,1.28212876 80.0266622,1.98367091 L78.2989502,5.46719057 L85.2097984,25.2313264 L104.622563,2.15300868 L104.622563,2.15300868 Z M99.4634228,61.6631361 L69.4444259,2.39491976 C68.9645059,1.45146652 67.7407099,0.701542153 66.7088819,0.701542153 L45.1604733,0.701542153 C44.1286452,0.701542153 43.8166972,1.35470209 44.4885852,2.15300868 L65.2931178,27.2875706 L53.8230295,50.1965506 C53.3431095,51.1400038 53.8230295,51.8899282 54.8548575,51.8899282 L60.9498417,51.8899282 C61.7897017,51.8899282 62.2936177,51.2609594 62.2936177,51.2609594 L73.8116981,37.5687918 L93.7043826,61.638945 C93.7043826,61.638945 94.7842026,62.9936471 96.0079987,62.9936471 L98.6235627,62.9936471 C99.0074988,63.0178382 100.159307,63.0420293 99.4634228,61.6631361 L99.4634228,61.6631361" id="Shape"></path>
        </g>
    </g>
</svg>