<svg width="853" height="204" viewBox="0 0 853 204" fill="none" xmlns="http://www.w3.org/2000/svg">
<path d="M780.026 204L780.282 182.88L811.77 3.04004H852.218L816.89 204H780.026ZM736.378 204.896C718.117 204.896 706.895 198.069 702.714 184.416C698.533 170.677 697.637 153.312 700.026 132.32C702.415 107.573 708.602 87.776 718.586 72.928C728.57 57.9947 743.418 50.528 763.13 50.528C778.746 50.528 791.759 54.4534 802.17 62.304C812.666 70.0694 816.89 79.456 814.842 90.464L793.594 107.488C795.045 99.04 793.765 92.1707 789.754 86.88C785.743 81.504 780.197 78.816 773.114 78.816C765.093 78.816 758.479 81.9734 753.274 88.288C748.069 94.6027 743.93 108.171 740.858 128.992C738.042 148.96 737.957 161.931 740.602 167.904C743.247 173.877 748.282 176.864 755.706 176.864C762.789 176.864 769.317 174.176 775.29 168.8C781.263 163.339 785.018 156.299 786.554 147.68L801.786 165.088C799.823 176.181 792.357 185.611 779.386 193.376C766.415 201.056 752.079 204.896 736.378 204.896Z" fill="black"/>
<path d="M550.533 204L577.541 51.6798H608.517L613.637 75.3598L591.109 204H550.533ZM634.373 204L648.837 121.568C651.909 104.416 652.379 93.0238 650.245 87.3918C648.112 81.6745 643.675 78.8158 636.933 78.8158C629.851 78.8158 623.323 82.0585 617.349 88.5438C611.461 95.0292 607.579 103.605 605.701 114.272L587.269 106.592C589.744 92.9385 597.595 80.1812 610.821 68.3198C624.133 56.4585 639.792 50.5278 657.797 50.5278C675.717 50.5278 686.299 57.3118 689.541 70.8798C692.869 84.3625 692.741 101.301 689.157 121.696L674.693 204H634.373Z" fill="black"/>
<path d="M493.488 204L520.24 51.6799H560.816L534.064 204H493.488ZM528.176 6.87988H568.752L563.632 35.9359H522.928L528.176 6.87988Z" fill="black"/>
<path d="M305.588 204L304.436 51.8081H346.292L338.74 176.608H339.124L384.564 51.8081H426.036L427.188 176.352H427.572L463.412 51.8081H506.164L451.508 204H397.492L398.26 92.6401L359.988 204H305.588Z" fill="black"/>
<path d="M206.034 205.28C178.642 205.28 161.96 198.197 155.986 184.032C149.842 169.781 148.776 150.965 152.786 127.584C157.053 103.435 164.733 84.5334 175.826 70.88C187.005 57.056 206.034 50.144 232.914 50.144C260.562 50.144 277.33 57.056 283.218 70.88C289.021 84.7894 289.832 103.691 285.65 127.584C284.882 132.107 283.944 136.288 282.834 140.128H186.706L191.058 115.168H246.738C248.53 101.003 248.274 91.3174 245.97 86.112C242.557 80.1387 236.626 77.152 228.178 77.152C220.072 77.152 212.989 80.3094 206.93 86.624C200.872 93.1094 196.05 106.805 192.466 127.712C188.882 148.192 188.925 161.717 192.594 168.288C196.178 175.029 202.237 178.4 210.77 178.4L206.034 205.28ZM210.77 178.4C215.89 178.4 220.242 177.547 223.826 175.84C227.325 174.133 230.482 171.104 233.298 166.752C235.858 162.315 238.333 157.195 240.722 151.392L276.434 159.456C273.106 170.805 268.328 179.68 262.098 186.08C255.784 192.651 248.445 197.472 240.082 200.544C231.549 203.701 220.2 205.28 206.034 205.28L210.77 178.4Z" fill="black"/>
<path d="M0.263672 204L30.7277 31.2002H117.128C135.474 31.2002 146.056 36.6189 148.872 47.4562C151.773 58.2082 152.114 70.1975 149.896 83.4242C147.848 96.7362 143.325 108.342 136.328 118.24C129.33 128.139 116.488 133.088 97.7997 133.088H53.7677L41.3517 204H0.263672ZM87.5597 204L73.2237 123.744L113.8 121.568L131.336 204H87.5597ZM58.2477 107.872H89.4797C95.3677 107.872 99.7197 105.782 102.536 101.6C105.352 97.3335 107.4 91.4029 108.68 83.8082C110.045 76.1282 110.088 70.1549 108.808 65.8882C107.613 61.6215 103.986 59.4882 97.9277 59.4882H66.8237L58.2477 107.872Z" fill="black"/>
</svg>
