<?xml version="1.0" encoding="UTF-8"?>
<svg width="350px" height="100px" viewBox="0 0 350 100" version="1.1" xmlns="http://www.w3.org/2000/svg" xmlns:xlink="http://www.w3.org/1999/xlink">
    <title>logo-cerebral</title>
    <g id="logo-cerebral" stroke="none" stroke-width="1" fill="none" fill-rule="evenodd">
        <g id="download" transform="translate(6, 21)">
            <polygon id="Path" stroke="#00296B" stroke-width="1.55232" points="308.178447 58 337 11.7115385 279.355263 11.7115385"></polygon>
            <polygon id="Path" stroke="#00296B" stroke-width="1.55232" points="308.178447 46.2884615 337 0 279.355263 0"></polygon>
            <path d="M24.1467475,55.2115385 C19.578444,55.2115385 15.4452713,54.1968415 11.7470664,52.1672821 C8.0924235,50.0937133 5.22091839,47.27 3.13255103,43.6963077 C1.04418368,40.0784406 0,36.0194872 0,31.5192821 C0,27.0190769 1.04418368,22.9821282 3.13255103,19.4084359 C5.22091839,15.7905688 8.11417189,12.967021 11.8123279,10.9374615 C15.5105328,8.86389276 19.6437054,7.82702564 24.212009,7.82702564 C27.779691,7.82702564 31.042765,8.44464571 34.001231,9.68005128 C36.959697,10.8712821 39.4831953,12.6581282 41.5715627,15.0405897 L37.3295665,19.2098974 C33.8924075,15.548021 29.6070124,13.717 24.4730549,13.717 C21.079458,13.717 18.0121684,14.4891492 15.2711863,16.0332821 C12.5302041,17.5774149 10.3765753,19.7173287 8.81029978,22.4526923 C7.28753735,25.1440466 6.52614798,28.1661329 6.52614798,31.5192821 C6.52614798,34.8724312 7.28753735,37.9166876 8.81029978,40.6520513 C10.3765753,43.3434056 12.5302041,45.4611492 15.2711863,47.0052821 C18.0121684,48.5494149 21.079458,49.3215641 24.4730549,49.3215641 C29.5634504,49.3215641 33.8490086,47.4685385 37.3295665,43.7624872 L41.5715627,47.9317949 C39.4831953,50.3142564 36.9379976,52.1231072 33.9359695,53.3585128 C30.9775035,54.5939184 27.7144295,55.2115385 24.1467475,55.2115385 Z M77.3149489,37.3430769 C77.3149489,37.828338 77.2713868,38.4681282 77.1844259,39.2622821 L49.1219896,39.2622821 C49.5135584,42.3507133 50.8404875,44.8433637 53.1029398,46.7405641 C55.4087911,48.5935897 58.2585967,49.5201026 61.6521937,49.5201026 C65.7853664,49.5201026 69.1137018,48.1083287 71.6372001,45.2846154 L75.0960585,49.3877436 C73.529783,51.2407692 71.5719386,52.6525431 69.2225254,53.6232308 C66.9166741,54.5939184 64.3279144,55.0791795 61.4564093,55.0791795 C57.8017664,55.0791795 54.5603918,54.3292004 51.7324488,52.8290769 C48.9045057,51.284944 46.7073148,49.1450303 45.1410393,46.4096667 C43.6183258,43.674303 42.8568875,40.5858718 42.8568875,37.1445385 C42.8568875,33.7473799 43.5964632,30.6809534 45.0757778,27.9455897 C46.5984913,25.2102261 48.6651592,23.0924825 51.2756184,21.592359 C53.9296396,20.0482261 56.9098051,19.2760769 60.2164411,19.2760769 C63.5230772,19.2760769 66.4598438,20.0482261 69.0267409,21.592359 C71.6372001,23.0924825 73.660306,25.2102261 75.0960585,27.9455897 C76.5753731,30.6809534 77.3149489,33.8135594 77.3149489,37.3430769 Z M60.2164411,24.6366154 C57.2144131,24.6366154 54.6909148,25.5631282 52.6461095,27.4161538 C50.644703,29.2691795 49.4699964,31.6958158 49.1219896,34.6958974 L71.3108927,34.6958974 C70.9628859,31.7398252 69.7663166,29.335359 67.7215113,27.4823333 C65.7201049,25.5851329 63.2184692,24.6366154 60.2164411,24.6366154 Z M89.5713811,25.4969487 C90.6591268,23.4673893 92.2688012,21.9232564 94.4007306,20.8643846 C96.53266,19.8055128 99.1212566,19.2760769 102.166847,19.2760769 L102.166847,25.4307692 C101.81884,25.3865944 101.340147,25.3645897 100.731094,25.3645897 C97.3374972,25.3645897 94.6617765,26.4014569 92.7039321,28.4750256 C90.7896498,30.5045851 89.832427,33.4164825 89.832427,37.2107179 L89.832427,54.6821026 L83.5673249,54.6821026 L83.5673249,19.6069744 L89.5713811,19.6069744 L89.5713811,25.4969487 Z M138.382889,37.3430769 C138.382889,37.828338 138.339327,38.4681282 138.252366,39.2622821 L110.18993,39.2622821 C110.581499,42.3507133 111.908428,44.8433637 114.17088,46.7405641 C116.476731,48.5935897 119.326537,49.5201026 122.720134,49.5201026 C126.853307,49.5201026 130.181642,48.1083287 132.70514,45.2846154 L136.163999,49.3877436 C134.597723,51.2407692 132.639879,52.6525431 130.290466,53.6232308 C127.984614,54.5939184 125.395855,55.0791795 122.52435,55.0791795 C118.869707,55.0791795 115.628332,54.3292004 112.800389,52.8290769 C109.972446,51.284944 107.775255,49.1450303 106.20898,46.4096667 C104.686266,43.674303 103.924828,40.5858718 103.924828,37.1445385 C103.924828,33.7473799 104.664404,30.6809534 106.143718,27.9455897 C107.666432,25.2102261 109.7331,23.0924825 112.343559,21.592359 C114.99758,20.0482261 117.977745,19.2760769 121.284381,19.2760769 C124.591017,19.2760769 127.527784,20.0482261 130.094681,21.592359 C132.70514,23.0924825 134.728246,25.2102261 136.163999,27.9455897 C137.643313,30.6809534 138.382889,33.8135594 138.382889,37.3430769 Z M121.284381,24.6366154 C118.282353,24.6366154 115.758855,25.5631282 113.71405,27.4161538 C111.712643,29.2691795 110.537937,31.6958158 110.18993,34.6958974 L132.378833,34.6958974 C132.030826,31.7398252 130.834257,29.335359 128.789452,27.4823333 C126.788045,25.5851329 124.28641,24.6366154 121.284381,24.6366154 Z M162.974231,19.2760769 C166.323776,19.2760769 169.325804,20.026056 171.980315,21.5261795 C174.633194,23.026303 176.700351,25.1218765 178.180155,27.8132308 C179.702379,30.5045851 180.464307,33.615021 180.464307,37.1445385 C180.464307,40.674056 179.702379,43.806662 178.180155,46.5420256 C176.700351,49.2333799 174.633194,51.3289534 171.980315,52.8290769 C169.325804,54.3292004 166.323776,55.0791795 162.974231,55.0791795 C160.406191,55.0791795 158.057431,54.5717483 155.925501,53.5570513 C153.793572,52.5423543 152.031512,51.0642354 150.639321,49.1230256 L150.639321,54.6821026 L144.635265,54.6821026 L144.635265,5.57692308 L150.900367,5.57692308 L150.900367,24.9013333 C152.292558,23.0483077 154.032918,21.6585385 156.121286,20.7320256 C158.209653,19.761338 160.494294,19.2760769 162.974231,19.2760769 Z M162.452139,49.5201026 C164.671029,49.5201026 166.650083,49.0126713 168.390933,47.9979744 C170.174203,46.9391026 171.565904,45.4831538 172.567668,43.6301282 C173.611852,41.7329278 174.133944,39.5711748 174.133944,37.1445385 C174.133944,34.7179021 173.611852,32.5781538 172.567668,30.7251282 C171.565904,28.8279278 170.174203,27.371979 168.390933,26.3572821 C166.650083,25.3425851 164.671029,24.8351538 162.452139,24.8351538 C160.275668,24.8351538 158.296614,25.3425851 156.512855,26.3572821 C154.729095,27.371979 153.336741,28.8279278 152.33612,30.7251282 C151.335498,32.5781538 150.835106,34.7179021 150.835106,37.1445385 C150.835106,39.5711748 151.335498,41.7329278 152.33612,43.6301282 C153.336741,45.4831538 154.729095,46.9391026 156.512855,47.9979744 C158.296614,49.0126713 160.275668,49.5201026 162.452139,49.5201026 Z M192.676362,25.4969487 C193.764597,23.4673893 195.374924,21.9232564 197.505711,20.8643846 C199.63813,19.8055128 202.227379,19.2760769 205.271827,19.2760769 L205.271827,25.4307692 C204.92431,25.3865944 204.446269,25.3645897 203.836075,25.3645897 C200.442478,25.3645897 197.766757,26.4014569 195.808913,28.4750256 C193.89512,30.5045851 192.937407,33.4164825 192.937407,37.2107179 L192.937407,54.6821026 L186.672305,54.6821026 L186.672305,19.6069744 L192.676362,19.6069744 L192.676362,25.4969487 Z M223.078422,19.2760769 C227.86372,19.2760769 231.518363,20.4673077 234.042351,22.8497692 C236.608758,25.2322308 237.892778,28.7839184 237.892778,33.5046667 L237.892778,54.6821026 L231.953983,54.6821026 L231.953983,50.0495385 C230.9098,51.682021 229.408785,52.9394312 227.450941,53.8217692 C225.537148,54.6600979 223.252996,55.0791795 220.598486,55.0791795 C216.726848,55.0791795 213.615507,54.130662 211.266094,52.2334615 C208.960732,50.3362611 207.807236,47.8436107 207.807236,44.7551795 C207.807236,41.6667483 208.916681,39.1961026 211.135571,37.3430769 C213.354461,35.4458765 216.878581,34.497359 221.707931,34.497359 L231.627676,34.497359 L231.627676,33.2399487 C231.627676,30.5045851 230.844538,28.4088462 229.278263,26.9528974 C227.711987,25.4969487 225.406625,24.7689744 222.360546,24.7689744 C220.31623,24.7689744 218.314334,25.1218765 216.35649,25.8278462 C214.398645,26.489641 212.745898,27.3941492 211.396617,28.5412051 L208.786158,23.7762821 C210.569428,22.3203333 212.701847,21.2172867 215.181783,20.4673077 C217.661719,19.6731538 220.293388,19.2760769 223.078422,19.2760769 Z M221.642669,50.1818974 C224.036134,50.1818974 226.10166,49.6524615 227.84251,48.5935897 C229.58336,47.4905431 230.844538,45.9464103 231.627676,43.9610256 L231.627676,39.0637436 L221.968977,39.0637436 C216.661587,39.0637436 214.007076,40.8725944 214.007076,44.4904615 C214.007076,46.255303 214.680901,47.6450722 216.030182,48.6597692 C217.379463,49.6744662 219.249205,50.1818974 221.642669,50.1818974 Z M247.039174,5.57692308 L253.304276,5.57692308 L253.304276,54.6821026 L247.039174,54.6821026 L247.039174,5.57692308 Z" id="Shape" fill="#00296B" fill-rule="nonzero"></path>
        </g>
    </g>
</svg>