<?xml version="1.0" encoding="UTF-8"?>
<svg width="350px" height="100px" viewBox="0 0 350 100" version="1.1" xmlns="http://www.w3.org/2000/svg" xmlns:xlink="http://www.w3.org/1999/xlink">
    <title>logo-make</title>
    <g id="logo-make" stroke="none" stroke-width="1" fill="none" fill-rule="evenodd">
        <g id="Make" transform="translate(61, 16)" fill="#00296B" fill-rule="nonzero">
            <path d="M0,0 L19.2409524,0 L34.0094643,49.2044258 L34.185119,49.2044258 L47.9672619,0 L67.6541071,0 L67.6541071,66.9726907 L53.6017262,66.9726907 L53.6017262,21.2672463 L53.4260714,21.2672463 C52.51711,26.3210843 51.2895248,31.3109401 49.7508333,36.2062567 L39.8195833,66.9863586 L26.9292262,66.9863586 L17.0925595,36.2062567 C15.4585351,31.0797079 14.1719211,25.8464384 13.2416667,20.5428478 L13.0660119,20.5428478 L13.0660119,67.0136944 L0,67.0136944 L0,0 Z" id="Path"></path>
            <path d="M71.3969048,54.6715842 C71.3969048,43.532249 80.7066071,37.3816957 101.636548,35.6595408 L101.636548,34.4841018 C101.636548,30.9577846 99.8529762,28.6889138 95.191369,28.6889138 C89.4539298,28.8321942 83.9337449,30.9376044 79.5310714,34.6617844 L73.4507143,26.3380357 C78.1933929,21.9916448 85.3547024,17.7409291 97.2586905,17.7409291 C110.324702,17.7409291 115.688929,24.2605155 115.688929,36.6572972 L115.688929,55.2183001 C115.688929,61.013488 116.040238,64.5398052 117.040119,66.9863586 L102.690476,66.9863586 C101.97188,64.7014511 101.607246,62.3177989 101.609524,59.9200563 C97.5359119,64.9396005 91.4228281,67.8075296 85.0033929,67.7107571 C77.6664286,67.7107571 71.3969048,62.9133256 71.3969048,54.6715842 Z M101.636548,52.594064 L101.636548,43.6279242 C90.2730357,44.8033633 85.4222619,47.728293 85.4222619,52.1430235 C85.4222619,55.2183001 87.5706548,56.7627723 90.7054167,56.7627723 C94.7657957,56.9590698 98.7260959,55.4506299 101.65006,52.594064 L101.636548,52.594064 Z" id="Shape"></path>
            <polygon id="Path" points="120.796429 0 135.200119 0 135.200119 36.7529725 150.063214 18.7386855 165.547857 18.7386855 149.982143 36.7529725 166.439643 66.9863586 151.576548 66.9863586 141.02375 47.345592 135.200119 53.9471857 135.200119 66.9863586 120.796429 66.9863586"></polygon>
            <path d="M162.669821,42.9035257 C162.669821,24.1648402 176.803274,17.7409291 186.653452,17.7409291 C196.503631,17.7409291 208.569762,22.743379 208.569762,44.6120127 L208.569762,46.7988761 L177.005952,46.7988761 C177.722083,54.7672595 182.113452,57.8425361 188.099226,57.8425361 C193.344061,57.6834064 198.358645,55.6272593 202.232679,52.0473482 L207.786071,60.7401301 C201.981562,65.6499262 194.594394,68.2283112 187.031786,67.984115 C174.560298,67.984115 162.669821,61.546536 162.669821,42.9035257 Z M195.692917,38.1881016 C194.976786,31.3541536 191.936607,28.142198 186.572381,28.142198 C182.09994,28.142198 178.249048,31.1217993 177.114048,38.1881016 L195.692917,38.1881016 Z" id="Shape"></path>
            <path d="M211.515357,18.7386855 L227,18.7386855 L227,32.7619469 L211.515357,32.7619469 L211.515357,18.7386855 Z M211.515357,52.9084256 L227,52.9084256 L227,66.9863586 L211.515357,66.9863586 L211.515357,52.9084256 Z" id="Shape"></path>
        </g>
    </g>
</svg>