<?xml version="1.0" encoding="UTF-8"?>
<svg width="350px" height="100px" viewBox="0 0 350 100" version="1.1" xmlns="http://www.w3.org/2000/svg" xmlns:xlink="http://www.w3.org/1999/xlink">
    <title>logo-tulane-sopa</title>
    <g id="logo-tulane-sopa" stroke="none" stroke-width="1" fill="none" fill-rule="evenodd">
        <g id="Tulane-SOPA-Copy" transform="translate(12, 0)" fill="#00296B" fill-rule="nonzero">
            <path d="M86.2301953,30.3145728 L85.6711984,30.3145728 C85.0332844,30.3145728 83.5930455,30.3145728 82.7578384,30.5969659 C82.1199244,30.8727918 81.3636345,32.1928154 80.9822014,32.8692454 C80.9230135,32.9677546 80.8638256,33.046562 80.7651791,33.0071583 L80.3640167,32.8692454 C80.2850995,32.8298417 80.2653702,32.7707362 80.2850995,32.672227 L81.2452587,29.0076837 C81.2847173,28.7318579 81.4030931,28.6530505 81.4820103,28.6530505 C81.6003861,28.6530505 81.6793033,28.7318579 81.8042556,28.850069 C82.205418,29.2441059 82.600004,29.3491824 83.1655773,29.3688842 C84.2441124,29.4082879 85.0793194,29.4870953 87.0390966,29.4870953 L88.1176317,29.4870953 C90.3141604,29.4870953 91.1493675,29.4082879 92.0700682,29.3688842 C92.4515013,29.3491824 93.2077912,29.0667893 93.5103071,28.850069 C93.6681415,28.7318579 93.7470587,28.6530505 93.8720109,28.6530505 C93.9969632,28.6530505 94.0298453,28.7318579 94.0693039,28.96828 C94.1087625,29.3294805 94.509925,31.7987785 94.6677594,32.7576016 C94.6874887,32.8758127 94.6480301,32.9152164 94.5888422,32.9349182 L94.1876797,33.0728312 C94.1087625,33.092533 94.0693039,33.0334275 94.010116,32.9152164 C93.7339058,32.3569974 92.9907689,31.0829448 92.431772,30.6823406 C91.8727752,30.3605438 90.0774088,30.3211401 89.3605776,30.3211401 L88.8015808,30.3211401 L88.8015808,40.9404348 C88.8015808,42.4574769 88.9988738,42.8515138 89.4789534,42.8515138 L90.6364057,42.8515138 C90.7153229,42.8515138 90.7547815,42.9303211 90.7547815,43.0288304 L90.7547815,43.4491364 C90.7547815,43.5673475 90.7153229,43.6527221 90.5574885,43.6527221 C90.3601955,43.6527221 89.715705,43.5936166 87.5652113,43.5936166 C85.5330933,43.5936166 84.6913099,43.6527221 84.4150997,43.6527221 C84.2967239,43.6527221 84.2572652,43.6133184 84.2572652,43.4754055 L84.2572652,43.0156958 C84.2572652,42.8909174 84.3164532,42.8515138 84.3953704,42.8515138 L85.5330933,42.8515138 C85.9342558,42.8515138 86.1710074,42.6150916 86.1907367,42.3129967 C86.2499246,41.7941814 86.2499246,35.6997439 86.2499246,35.2991397 L86.2499246,30.3145728 L86.2301953,30.3145728 Z" id="Path"></path>
            <path d="M98.7056895,31.2077231 C98.7056895,30.5312931 98.5478551,30.2094963 98.0283169,30.2094963 L97.1076162,30.2094963 C96.9892404,30.2094963 96.9497818,30.1700926 96.9497818,30.0321797 L96.9497818,29.57247 C96.9497818,29.4476916 96.9892404,29.4082879 97.1470748,29.4082879 C97.3443678,29.4082879 98.3045271,29.4673934 100.218269,29.4673934 C101.89526,29.4673934 102.855419,29.4082879 103.092171,29.4082879 C103.210546,29.4082879 103.250005,29.4476916 103.250005,29.5462008 L103.250005,30.0453142 C103.250005,30.1635253 103.210546,30.2094963 103.092171,30.2094963 L102.250387,30.2094963 C101.651932,30.2094963 101.290228,30.5641295 101.270499,30.9844355 C101.250769,31.227425 101.211311,32.4226703 101.211311,33.5719446 L101.211311,36.0412425 C101.211311,37.0394694 101.23104,38.451435 101.270499,39.0884613 C101.329686,40.0078807 101.487521,40.9207329 101.967601,41.5577592 C102.644973,42.4771787 103.723508,42.7924082 104.683668,42.7924082 C105.643827,42.7924082 106.715785,42.437775 107.360276,41.8401524 C108.116566,41.084915 108.517728,39.9290734 108.517728,38.4711368 L108.517728,34.8854009 C108.517728,33.2895515 108.359894,31.5360872 108.300706,31.0829448 C108.241518,30.5641295 107.919273,30.2094963 107.485228,30.2094963 L106.768397,30.2094963 C106.650021,30.2094963 106.610563,30.1503908 106.610563,30.0715834 L106.610563,29.57247 C106.610563,29.4476916 106.650021,29.4082879 106.768397,29.4082879 C106.96569,29.4082879 107.886391,29.4673934 109.201677,29.4673934 C110.438047,29.4673934 111.075961,29.4082879 111.233795,29.4082879 C111.411359,29.4082879 111.431088,29.4673934 111.431088,29.57247 L111.431088,30.0321797 C111.431088,30.1503908 111.411359,30.2094963 111.312712,30.2094963 L110.595881,30.2094963 C109.87905,30.2094963 109.800133,30.7677152 109.760674,30.9844355 C109.721216,31.227425 109.721216,34.0119525 109.721216,34.2746437 C109.721216,34.5504696 109.681757,38.0245616 109.60284,38.8192027 C109.484464,40.4544559 109.004384,41.6891049 107.925849,42.647928 C107.084066,43.4031654 105.808238,43.882577 104.295658,43.882577 C103.335499,43.882577 102.178046,43.7249622 101.421757,43.4031654 C100.264304,42.9237539 99.4685558,42.0109017 99.0673934,40.7302817 C98.7846067,39.8568333 98.7056895,38.5368096 98.7056895,35.9295987 L98.7056895,31.2077231 L98.7056895,31.2077231 Z" id="Path"></path>
            <path d="M126.208334,39.4824982 C126.247793,39.5219019 126.247793,39.5613056 126.247793,39.6795166 C126.168876,39.7977277 125.366551,43.1076377 125.248175,43.6461549 C124.728637,43.626453 118.980834,43.5870493 116.948716,43.5870493 C115.15335,43.5870493 114.436518,43.6461549 114.19319,43.6461549 C114.035356,43.6461549 114.035356,43.6067512 114.035356,43.4688382 L114.035356,43.0091285 C114.035356,42.8843502 114.035356,42.8449465 114.153732,42.8449465 L114.94948,42.8449465 C115.666311,42.8449465 115.791264,42.5691206 115.791264,42.3064294 C115.791264,41.9452289 115.870181,36.9672293 115.870181,35.771984 L115.870181,34.6555461 C115.870181,33.3814934 115.830722,31.2668287 115.791264,30.9318973 C115.751805,30.413082 115.672888,30.2160636 115.15335,30.2160636 L114.311566,30.2160636 C114.19319,30.2160636 114.153732,30.0912852 114.153732,30.038747 L114.153732,29.5790372 C114.153732,29.4542589 114.19319,29.4148552 114.311566,29.4148552 C114.508859,29.4148552 115.232267,29.4739607 117.067092,29.4739607 C119.224162,29.4739607 120.059369,29.4148552 120.217203,29.4148552 C120.375038,29.4148552 120.414496,29.4936626 120.414496,29.5921718 L120.414496,30.0518815 C120.414496,30.1306889 120.375038,30.2160636 120.217203,30.2160636 L119.138668,30.2160636 C118.540213,30.2160636 118.461296,30.413082 118.461296,30.9515991 C118.461296,31.2339923 118.382378,34.2221055 118.382378,35.6143692 L118.382378,37.3284298 C118.382378,37.6896303 118.382378,41.9911998 118.461296,42.8515138 L119.579289,42.8515138 C120.697283,42.8515138 122.130945,42.8515138 122.93327,42.7530045 C124.051264,42.5888225 125.327092,40.2048992 125.609879,39.4430945 C125.688796,39.3642871 125.728255,39.3248834 125.84663,39.3642871 L126.208334,39.4890655 L126.208334,39.4824982 Z" id="Path"></path>
            <path d="M132.298112,38.103369 C132.140277,38.5630787 131.160389,41.413279 131.061742,41.9452289 C131.022283,42.1094109 131.022283,42.2670257 131.022283,42.3655349 C131.022283,42.6216589 131.344529,42.8449465 131.739115,42.8449465 L132.580898,42.8449465 C132.738733,42.8449465 132.778191,42.8843502 132.778191,42.9434557 L132.778191,43.4425691 C132.778191,43.5607802 132.738733,43.6461549 132.620357,43.6461549 C132.33757,43.6461549 131.502363,43.5870493 130.108159,43.5870493 C128.635038,43.5870493 128.194417,43.6461549 127.91163,43.6461549 C127.793255,43.6461549 127.793255,43.5213765 127.793255,43.3900309 L127.793255,43.0091285 C127.793255,42.8843502 127.832713,42.8449465 127.91163,42.8449465 L128.510086,42.8449465 C129.069083,42.8449465 129.430787,42.5691206 129.785914,41.9452289 C129.983207,41.5905957 131.423446,37.9982925 132.021901,36.3302029 L133.975102,31.1092139 C134.014561,30.9121954 134.132936,30.5509949 134.014561,30.4327839 C133.955373,30.3736783 133.896185,30.2554673 133.896185,30.1963617 C133.896185,30.1175543 133.935643,30.038747 134.093478,29.9993433 C134.731392,29.8351612 135.829656,29.2375386 136.066408,29.0011164 C136.184784,28.8829054 136.263701,28.804098 136.368924,28.804098 C136.4873,28.804098 136.566217,29.0405201 136.605675,29.1587312 C136.967379,30.3933802 138.519418,34.8591318 138.881121,36.1331845 C139.361201,37.6896303 140.637029,41.3935772 140.913239,41.9320943 C141.274943,42.6085243 141.794481,42.8449465 142.189067,42.8449465 L142.826981,42.8449465 C142.945357,42.8449465 142.984816,42.8843502 142.984816,42.9828594 L142.984816,43.4031654 C142.984816,43.5213765 142.945357,43.6461549 142.787523,43.6461549 C142.425819,43.6461549 142.031233,43.5870493 139.834704,43.5870493 C138.157714,43.5870493 137.480341,43.6461549 137.03972,43.6461549 C136.881886,43.6461549 136.842427,43.5213765 136.842427,43.4031654 L136.842427,43.0091285 C136.842427,42.8843502 136.881886,42.8449465 137.000261,42.8449465 L137.5198,42.8449465 C138.078797,42.8449465 138.236631,42.647928 138.118255,42.1094109 C137.960421,41.3935772 137.158096,38.8389046 136.921344,38.103369 L132.291535,38.103369 L132.298112,38.103369 Z M136.724051,37.3087279 C136.526758,36.7308071 135.165437,32.1862481 135.047061,31.7856439 C134.968144,31.5492218 134.928685,31.4310107 134.849768,31.4310107 C134.731392,31.4310107 134.652475,31.5098181 134.593287,31.6871347 C134.51437,31.9432587 132.719003,36.8490182 132.580898,37.3087279 L136.730628,37.3087279 L136.724051,37.3087279 Z" id="Shape"></path>
            <path d="M148.022364,34.5767387 C148.022364,37.9654561 148.180198,40.7565509 148.219657,41.3738754 C148.259115,42.3721022 148.502444,42.8449465 149.219275,42.8449465 L149.738813,42.8449465 C149.896647,42.8449465 149.896647,42.9237539 149.896647,43.0222631 L149.896647,43.4819728 C149.896647,43.6067512 149.896647,43.6461549 149.738813,43.6461549 C149.54152,43.6461549 148.344609,43.5870493 147.581743,43.5870493 C147.062205,43.5870493 145.707459,43.6461549 145.50359,43.6461549 C145.424673,43.6461549 145.385214,43.6067512 145.385214,43.4688382 L145.385214,42.9697248 C145.385214,42.9303211 145.424673,42.8449465 145.50359,42.8449465 L146.180963,42.8449465 C146.700501,42.8449465 146.976711,42.4115059 147.081934,41.1899915 C147.101663,40.8353582 147.220039,38.0442635 147.220039,34.8525645 L147.220039,32.324161 C147.220039,31.1289157 146.542666,30.2094963 145.661424,30.2094963 L145.02351,30.2094963 C144.944593,30.1897944 144.905134,30.1503908 144.905134,30.0715834 L144.905134,29.5330663 C144.905134,29.4542589 144.944593,29.4148552 145.02351,29.4148552 C145.122157,29.4148552 145.279991,29.434557 145.641695,29.4542589 C146.003399,29.4739607 146.542666,29.4739607 147.417332,29.4739607 C147.759307,29.4739607 148.055246,29.4542589 148.291998,29.434557 C148.548479,29.434557 148.732619,29.4148552 148.850995,29.4148552 C149.087746,29.4148552 149.212698,29.4739607 149.331074,29.5921718 C149.528367,29.7891903 153.441345,34.6949498 153.842507,35.2531687 C154.125294,35.5683982 157.235947,39.4365272 157.558192,39.8371314 L157.63711,39.8371314 L157.63711,37.7618704 C157.63711,36.0084061 157.63711,35.0101793 157.597651,34.0119525 C157.558192,33.256715 157.479275,31.2996651 157.380629,30.9647337 C157.242524,30.4853221 156.801903,30.2094963 156.321823,30.2094963 L155.683909,30.2094963 C155.565533,30.2094963 155.565533,30.1306889 155.565533,30.0321797 L155.565533,29.57247 C155.565533,29.4476916 155.565533,29.4082879 155.723367,29.4082879 C155.960119,29.4082879 156.598033,29.4673934 157.959355,29.4673934 C159.156266,29.4673934 159.636345,29.4082879 159.873097,29.4082879 C160.030931,29.4082879 160.07039,29.4870953 160.07039,29.5462008 L160.07039,30.0059106 C160.07039,30.1241216 160.030931,30.2094963 159.952014,30.2094963 L159.393017,30.2094963 C158.991855,30.2094963 158.794562,30.5247258 158.735374,31.2668287 C158.636727,32.6196887 158.432858,35.9690024 158.432858,37.9982925 L158.432858,43.2586852 C158.432858,43.5410783 158.432858,43.8169042 158.196106,43.8169042 C157.91332,43.8169042 157.676568,43.6592894 157.518734,43.5016747 C157.360899,43.3046562 156.282364,42.0700072 155.045995,40.5923688 C153.645214,38.8783083 152.093176,37.006633 151.849848,36.6848361 C151.567062,36.4090103 148.377491,32.4226703 148.134163,32.1402771 L148.015787,32.1402771 L148.015787,34.5701714 L148.022364,34.5767387 Z" id="Path"></path>
            <path d="M167.646441,37.8078413 C167.666171,38.8848756 167.705629,40.8353582 167.705629,41.1965587 C167.705629,42.2341893 168.067333,42.6347935 168.501378,42.7530045 C168.823623,42.8318119 169.303703,42.9106193 170.059992,42.9106193 C170.421696,42.9106193 171.33582,42.8712156 171.736983,42.8318119 C172.09211,42.7924082 172.854977,42.5888225 173.374515,42.1553819 C173.736219,41.8335851 174.847636,40.5201287 175.229069,40.0407171 C175.307986,39.9422079 175.367174,39.9225061 175.446091,39.9619098 L175.768337,40.1654955 C175.827524,40.2048992 175.847254,40.2640047 175.807795,40.362514 L174.847636,43.3506272 C174.788448,43.5279438 174.650343,43.6527221 174.413591,43.6527221 C174.314945,43.6527221 173.874324,43.6330203 172.637954,43.6133184 C171.381855,43.6133184 169.323432,43.5936166 165.995756,43.5936166 C165.259196,43.5936166 164.719928,43.6133184 164.299037,43.6133184 C163.904451,43.6330203 163.621664,43.6527221 163.4441,43.6527221 C163.325725,43.6527221 163.286266,43.6133184 163.286266,43.4885401 L163.286266,43.0091285 C163.286266,42.8843502 163.325725,42.8449465 163.483559,42.8449465 L164.160932,42.8449465 C165.081632,42.8449465 165.160549,42.7267354 165.160549,41.9846326 L165.160549,35.2925724 C165.160549,33.6573192 165.121091,31.1880213 165.081632,30.9056282 C165.002715,30.3671111 164.805422,30.2094963 164.206967,30.2094963 L163.450677,30.2094963 C163.37176,30.2094963 163.332301,30.1700926 163.332301,30.0715834 L163.332301,29.5527681 C163.332301,29.4542589 163.35203,29.4148552 163.450677,29.4148552 C163.891298,29.4148552 164.608129,29.4936626 166.245661,29.4739607 L166.804658,29.4739607 C167.679323,29.4739607 172.269674,29.434557 173.150916,29.434557 C173.466585,29.434557 173.848018,29.4148552 173.946665,29.4148552 C174.045311,29.4148552 174.08477,29.4542589 174.104499,29.5330663 C174.183416,29.7891903 174.946282,32.5080449 175.0252,32.7050634 C175.064658,32.8232744 175.044929,32.88238 174.966012,32.9217837 L174.610884,33.0793984 C174.551696,33.0991003 174.485932,33.0793984 174.433321,32.9808892 C174.354403,32.8626781 172.716871,31.0304065 172.236792,30.7480134 C171.8159,30.505024 171.283209,30.2489 170.724212,30.2291981 L167.692476,30.1503908 L167.653018,35.9098969 C168.251473,35.9098969 169.685136,35.8704932 169.928464,35.8113877 C170.362508,35.7325803 170.605836,35.5683982 170.842588,35.095554 C170.960964,34.83943 171.164833,34.3337493 171.164833,33.979116 C171.164833,33.860905 171.24375,33.8215013 171.322668,33.8215013 L171.842206,33.860905 C171.921123,33.860905 171.980311,33.9003087 171.960582,34.0185197 C171.921123,34.3337493 171.921123,35.6537729 171.921123,36.1725882 C171.921123,36.9737965 172.00004,37.9260524 172.039499,38.3660603 C172.039499,38.4645695 172.00004,38.4842714 171.881664,38.5039732 L171.441043,38.5827806 C171.362126,38.6024824 171.322668,38.5630787 171.283209,38.4448677 C171.204292,38.1230709 171.066187,37.6896303 170.960964,37.4466408 C170.7834,37.0526039 170.401967,36.7702108 169.961346,36.7308071 C169.244515,36.6519997 168.284355,36.612596 167.646441,36.612596 L167.666171,37.8078413 L167.646441,37.8078413 Z" id="Path"></path>
            <path d="M184.968767,31.2077231 C184.968767,30.5312931 184.804356,30.2094963 184.291394,30.2094963 L183.370694,30.2094963 C183.252318,30.2094963 183.212859,30.1700926 183.212859,30.0321797 L183.212859,29.57247 C183.212859,29.4476916 183.252318,29.4082879 183.410152,29.4082879 C183.607445,29.4082879 184.567605,29.4673934 186.481347,29.4673934 C188.158337,29.4673934 189.118496,29.4082879 189.355248,29.4082879 C189.4802,29.4082879 189.519659,29.4476916 189.519659,29.5462008 L189.519659,30.0453142 C189.519659,30.1635253 189.4802,30.2094963 189.355248,30.2094963 L188.520041,30.2094963 C187.921586,30.2094963 187.566458,30.5641295 187.540152,30.9844355 C187.520423,31.227425 187.480965,32.4226703 187.480965,33.5719446 L187.480965,36.0412425 C187.480965,37.0394694 187.500694,38.451435 187.540152,39.0884613 C187.59934,40.0078807 187.757175,40.9207329 188.237254,41.5577592 C188.914627,42.4771787 189.993162,42.7924082 190.953321,42.7924082 C191.913481,42.7924082 192.985439,42.437775 193.62993,41.8401524 C194.38622,41.084915 194.787382,39.9290734 194.787382,38.4711368 L194.787382,34.8854009 C194.787382,33.2895515 194.629548,31.5360872 194.57036,31.0829448 C194.511172,30.5641295 194.188927,30.2094963 193.748306,30.2094963 L193.031474,30.2094963 C192.913099,30.2094963 192.87364,30.1503908 192.87364,30.0715834 L192.87364,29.57247 C192.87364,29.4476916 192.913099,29.4082879 193.031474,29.4082879 C193.235344,29.4082879 194.149468,29.4673934 195.464755,29.4673934 C196.701124,29.4673934 197.339038,29.4082879 197.496873,29.4082879 C197.674436,29.4082879 197.700742,29.4673934 197.700742,29.57247 L197.700742,30.0321797 C197.700742,30.1503908 197.681013,30.2094963 197.57579,30.2094963 L196.858959,30.2094963 C196.142127,30.2094963 196.06321,30.7677152 196.023752,30.9844355 C195.984293,31.227425 195.984293,34.0119525 195.984293,34.2746437 C195.984293,34.5504696 195.944834,38.0245616 195.865917,38.8192027 C195.740965,40.4544559 195.267462,41.6891049 194.188927,42.647928 C193.35372,43.4031654 192.071315,43.882577 190.558735,43.882577 C189.605153,43.882577 188.441124,43.7249622 187.684834,43.4031654 C186.527382,42.9237539 185.731633,42.0109017 185.330471,40.7302817 C185.054261,39.8568333 184.975343,38.5368096 184.975343,35.9295987 L184.975343,31.2077231 L184.968767,31.2077231 Z" id="Path"></path>
            <path d="M202.909277,34.5767387 C202.909277,37.9654561 203.073688,40.7565509 203.113147,41.3738754 C203.152605,42.3721022 203.389357,42.8449465 204.112765,42.8449465 L204.632303,42.8449465 C204.790137,42.8449465 204.790137,42.9237539 204.790137,43.0222631 L204.790137,43.4819728 C204.790137,43.6067512 204.790137,43.6461549 204.632303,43.6461549 C204.43501,43.6461549 203.238099,43.5870493 202.475233,43.5870493 C201.955695,43.5870493 200.600949,43.6461549 200.39708,43.6461549 C200.318163,43.6461549 200.278704,43.6067512 200.278704,43.4688382 L200.278704,42.9697248 C200.278704,42.9303211 200.318163,42.8449465 200.39708,42.8449465 L201.074452,42.8449465 C201.593991,42.8449465 201.876777,42.4115059 201.975424,41.1899915 C201.995153,40.8353582 202.113529,38.0442635 202.113529,34.8525645 L202.113529,32.324161 C202.113529,31.1289157 201.436156,30.2094963 200.554914,30.2094963 L199.917,30.2094963 C199.838083,30.1897944 199.792048,30.1503908 199.792048,30.0715834 L199.792048,29.5330663 C199.792048,29.4542589 199.831507,29.4148552 199.917,29.4148552 C200.015647,29.4148552 200.173481,29.434557 200.535185,29.4542589 C200.896889,29.4739607 201.436156,29.4739607 202.310822,29.4739607 C202.652796,29.4739607 202.948736,29.4542589 203.192064,29.434557 C203.448545,29.434557 203.626109,29.4148552 203.751061,29.4148552 C203.987812,29.4148552 204.106188,29.4739607 204.231141,29.5921718 C204.43501,29.7891903 208.341411,34.6949498 208.742574,35.2531687 C209.02536,35.5683982 212.136014,39.4365272 212.458259,39.8371314 L212.537176,39.8371314 L212.537176,37.7618704 C212.537176,36.0084061 212.537176,35.0101793 212.497717,34.0119525 C212.458259,33.256715 212.379342,31.2996651 212.280695,30.9647337 C212.14259,30.4853221 211.701969,30.2094963 211.221889,30.2094963 L210.583975,30.2094963 C210.465599,30.2094963 210.465599,30.1306889 210.465599,30.0321797 L210.465599,29.57247 C210.465599,29.4476916 210.465599,29.4082879 210.623434,29.4082879 C210.866762,29.4082879 211.504676,29.4673934 212.859421,29.4673934 C214.056332,29.4673934 214.536412,29.4082879 214.773163,29.4082879 C214.930998,29.4082879 214.970456,29.4870953 214.970456,29.5462008 L214.970456,30.0059106 C214.970456,30.1241216 214.930998,30.2094963 214.852081,30.2094963 L214.293084,30.2094963 C213.898498,30.2094963 213.694628,30.5247258 213.63544,31.2668287 C213.536794,32.6196887 213.332924,35.9690024 213.332924,37.9982925 L213.332924,43.2586852 C213.332924,43.5410783 213.332924,43.8169042 213.089596,43.8169042 C212.813386,43.8169042 212.570058,43.6592894 212.412224,43.5016747 C212.254389,43.3046562 211.175854,42.0700072 209.939485,40.5923688 C208.545281,38.8783083 206.986666,37.006633 206.743338,36.6848361 C206.467128,36.4090103 203.270981,32.4226703 203.027653,32.1402771 L202.909277,32.1402771 L202.909277,34.5701714 L202.909277,34.5767387 Z" id="Path"></path>
            <path d="M222.474167,37.1314113 C222.474167,37.3284298 222.513625,41.9123925 222.513625,42.13568 C222.513625,42.7727064 222.835871,42.8515138 223.309374,42.8515138 L224.151157,42.8515138 C224.230075,42.8515138 224.308992,42.8909174 224.308992,42.9894267 L224.308992,43.4885401 C224.308992,43.6133184 224.230075,43.6527221 224.111699,43.6527221 C223.868371,43.6527221 223.072622,43.5936166 221.198339,43.5936166 C219.205679,43.5936166 218.324437,43.6527221 218.127144,43.6527221 C218.008769,43.6527221 217.96931,43.6133184 217.96931,43.5148092 L217.96931,42.9762921 C217.96931,42.8974847 218.008769,42.8515138 218.127144,42.8515138 L218.922893,42.8515138 C219.324055,42.8515138 219.764676,42.8121101 219.843594,42.273593 C219.883052,41.9911998 219.922511,37.6896303 219.922511,36.612596 L219.922511,35.2203323 C219.922511,34.7409207 219.883052,31.1551849 219.863323,30.8990609 C219.804135,30.4196493 219.606842,30.2226309 219.047845,30.2226309 L218.008769,30.2226309 C217.890393,30.2226309 217.850934,30.1832272 217.850934,30.0847179 L217.850934,29.5659027 C217.850934,29.4673934 217.890393,29.4279898 217.96931,29.4279898 C218.206062,29.4279898 219.245138,29.4870953 221.204915,29.4870953 C223.164692,29.4870953 223.756571,29.4279898 224.039358,29.4279898 C224.16431,29.4279898 224.203769,29.5067971 224.203769,29.6053064 L224.203769,30.0650161 C224.203769,30.1832272 224.124852,30.2291981 224.039358,30.2291981 L223.283068,30.2291981 C222.849024,30.2291981 222.526778,30.3868129 222.526778,30.7677152 C222.526778,30.9647337 222.48732,35.3516779 222.48732,35.5881001 L222.48732,37.1445459 L222.474167,37.1314113 Z" id="Path"></path>
            <path d="M236.48197,29.5790372 C236.48197,29.4542589 236.521429,29.4148552 236.639805,29.4148552 C236.804215,29.4148552 237.71834,29.4739607 238.994168,29.4739607 C240.671158,29.4739607 241.190696,29.4148552 241.348531,29.4148552 C241.466907,29.4148552 241.506365,29.4542589 241.506365,29.5527681 L241.506365,30.0518815 C241.506365,30.1503908 241.466907,30.2160636 241.348531,30.2160636 L240.868451,30.2160636 C240.388372,30.2160636 239.868833,30.413082 239.408483,31.1289157 C238.75084,32.1862481 237.553929,35.2925724 236.994932,36.6060288 C236.593769,37.4794772 234.199948,43.3046562 234.002655,43.7249622 C233.923738,43.882577 233.765903,43.9810862 233.608069,43.9810862 C233.364741,43.9810862 233.266094,43.7643659 233.167448,43.5213765 C232.490075,41.8270178 230.813084,37.2627569 230.135712,35.4107835 C229.616174,33.979116 228.741508,31.4244434 228.517909,30.8465226 C228.340346,30.4065147 228.097017,30.2094963 227.656396,30.2094963 L227.176317,30.2094963 C227.0974,30.2094963 227.057941,30.1503908 227.057941,30.0321797 L227.057941,29.57247 C227.057941,29.4476916 227.0974,29.4082879 227.176317,29.4082879 C227.37361,29.4082879 228.050982,29.4673934 230.129135,29.4673934 C232.003419,29.4673934 232.92412,29.4082879 233.081954,29.4082879 C233.239788,29.4082879 233.279247,29.4673934 233.279247,29.57247 L233.279247,30.0059106 C233.279247,30.1438235 233.239788,30.2094963 233.121413,30.2094963 L232.16783,30.2094963 C231.648292,30.2094963 231.326046,30.4065147 231.326046,30.7086097 C231.326046,30.8662245 231.326046,31.1026466 231.385234,31.3850397 C231.523339,32.1008734 232.286206,34.4519603 232.680792,35.6078019 C232.963578,36.3696066 234.035537,39.5153346 234.357782,40.5923688 L234.397241,40.5923688 L234.397241,40.5529651 C234.87732,39.4365272 236.153148,36.1266172 236.350441,35.5289945 C236.672687,34.5898733 237.909056,31.5820582 237.909056,30.7677152 C237.909056,30.5312931 237.711763,30.2094963 237.152766,30.2094963 L236.613499,30.2094963 C236.534582,30.2094963 236.475394,30.1306889 236.475394,30.0321797 L236.475394,29.57247 L236.48197,29.5790372 Z" id="Path"></path>
            <path d="M247.997305,37.8078413 C248.017034,38.8848756 248.056493,40.8353582 248.056493,41.1965587 C248.056493,42.2341893 248.418197,42.6347935 248.858818,42.7530045 C249.174487,42.8318119 249.654566,42.9106193 250.417433,42.9106193 C250.77256,42.9106193 251.693261,42.8712156 252.094423,42.8318119 C252.449551,42.7924082 253.212417,42.5888225 253.731955,42.1553819 C254.093659,41.8335851 255.205076,40.5201287 255.586509,40.0407171 C255.665426,39.9422079 255.724614,39.9225061 255.803532,39.9619098 L256.125777,40.1654955 C256.184965,40.2048992 256.204694,40.2640047 256.165235,40.362514 L255.205076,43.3506272 C255.145888,43.5279438 255.007783,43.6527221 254.771032,43.6527221 C254.672385,43.6527221 254.231764,43.6330203 252.995394,43.6133184 C251.739296,43.6133184 249.680872,43.5936166 246.353197,43.5936166 C245.616636,43.5936166 245.077369,43.6133184 244.656477,43.6133184 C244.261891,43.6330203 243.979104,43.6527221 243.801541,43.6527221 C243.676588,43.6527221 243.63713,43.6133184 243.63713,43.4885401 L243.63713,43.0091285 C243.63713,42.8843502 243.676588,42.8449465 243.840999,42.8449465 L244.518372,42.8449465 C245.432496,42.8449465 245.51799,42.7267354 245.51799,41.9846326 L245.51799,35.2925724 C245.51799,33.6573192 245.478531,31.1880213 245.439072,30.9056282 C245.360155,30.3671111 245.162862,30.2094963 244.564407,30.2094963 L243.808117,30.2094963 C243.7292,30.2094963 243.683165,30.1700926 243.683165,30.0715834 L243.683165,29.5527681 C243.683165,29.4542589 243.702894,29.4148552 243.808117,29.4148552 C244.242162,29.4148552 244.965569,29.4936626 246.603101,29.4739607 L247.162098,29.4739607 C248.036764,29.4739607 252.627114,29.434557 253.508356,29.434557 C253.824025,29.434557 254.205458,29.4148552 254.304105,29.4148552 C254.402751,29.4148552 254.44221,29.4542589 254.461939,29.5330663 C254.540856,29.7891903 255.303723,32.5080449 255.38264,32.7050634 C255.422098,32.8232744 255.402369,32.88238 255.323452,32.9217837 L254.968325,33.0793984 C254.909137,33.0991003 254.843372,33.0793984 254.790761,32.9808892 C254.711844,32.8626781 253.074312,31.0304065 252.594232,30.7480134 C252.17334,30.505024 251.640649,30.2489 251.081652,30.2291981 L248.049917,30.1503908 L248.010458,35.9098969 C248.608913,35.9098969 250.042576,35.8704932 250.285904,35.8113877 C250.719949,35.7325803 250.963277,35.5683982 251.200028,35.095554 C251.318404,34.83943 251.522273,34.3337493 251.522273,33.979116 C251.522273,33.860905 251.601191,33.8215013 251.680108,33.8215013 L252.199646,33.860905 C252.278563,33.860905 252.337751,33.9003087 252.318022,34.0185197 C252.278563,34.3337493 252.278563,35.6537729 252.278563,36.1725882 C252.278563,36.9737965 252.35748,37.9260524 252.396939,38.3660603 C252.396939,38.4645695 252.35748,38.4842714 252.239105,38.5039732 L251.798484,38.5827806 C251.719566,38.6024824 251.680108,38.5630787 251.640649,38.4448677 C251.561732,38.1230709 251.423627,37.6896303 251.318404,37.4466408 C251.14084,37.0526039 250.759407,36.7702108 250.318786,36.7308071 C249.601955,36.6519997 248.641796,36.612596 248.003882,36.612596 L248.023611,37.8078413 L247.997305,37.8078413 Z" id="Path"></path>
            <path d="M262.846892,38.3660603 C262.846892,39.5613056 262.88635,41.7941814 262.925809,42.0897091 C262.984997,42.4903133 263.123102,42.8449465 263.445347,42.8449465 L264.444965,42.8449465 C264.569917,42.8449465 264.609376,42.904052 264.609376,42.9828594 L264.609376,43.462271 C264.609376,43.6001839 264.550188,43.6395876 264.392354,43.6395876 C264.135873,43.6395876 263.73471,43.580482 261.656557,43.580482 C259.703357,43.580482 259.223277,43.6395876 259.019408,43.6395876 C258.901032,43.6395876 258.861573,43.580482 258.861573,43.462271 L258.861573,43.0025612 C258.861573,42.904052 258.901032,42.8383792 258.979949,42.8383792 L259.657322,42.8383792 C260.091366,42.8383792 260.413611,42.7201681 260.413611,42.181651 C260.45307,40.1917646 260.45307,38.313522 260.45307,36.4418467 L260.45307,31.2011558 C260.45307,30.5247258 260.17686,30.202929 259.815156,30.202929 L259.039137,30.202929 C258.94049,30.202929 258.901032,30.1635253 258.901032,30.0781507 L258.901032,29.5396335 C258.901032,29.4411243 258.94049,29.4017206 259.039137,29.4017206 C259.177242,29.4017206 259.815156,29.4608262 261.774933,29.4608262 C262.892927,29.4608262 264.727752,29.4017206 265.326207,29.4017206 C266.924281,29.4017206 268.16065,29.9402377 268.956398,30.6560715 C269.679806,31.2930978 270.034934,32.1271426 270.034934,32.8889473 C270.034934,35.3976489 268.522354,36.4352794 266.319249,36.7964799 L266.319249,36.8752873 C266.878245,37.0788731 267.239949,37.4335063 267.51616,37.7947068 C267.752911,38.1099363 268.989281,39.9881789 269.153691,40.224601 C269.272067,40.4216195 270.547895,42.2144874 270.850411,42.4968805 C271.231844,42.8383792 271.790841,42.8777829 272.270921,42.8777829 C272.389297,42.8777829 272.428755,42.9368884 272.428755,43.0156958 L272.428755,43.4360018 C272.428755,43.5739148 272.389297,43.6395876 272.270921,43.6395876 C272.10651,43.6395876 271.586972,43.580482 270.311144,43.580482 C269.752147,43.580482 268.995857,43.6198857 268.555236,43.6395876 C268.311908,43.462271 267.937051,42.9171866 267.673994,42.5034478 C267.318867,41.9452289 266.536271,40.5135614 266.358707,40.1917646 C266.161414,39.8305641 265.602417,38.917712 265.280172,38.4777041 C264.780363,37.7815722 264.320013,37.2430551 263.484806,37.2430551 C263.405889,37.2430551 263.063914,37.2627569 262.846892,37.2824588 L262.846892,38.359493 L262.846892,38.3660603 Z M262.88635,36.5731924 C263.162561,36.612596 263.405889,36.6519997 263.64264,36.6519997 C266.753293,36.6519997 267.397784,34.1432981 267.397784,33.2238786 C267.397784,32.3044592 267.016351,31.4507126 266.523118,30.9910028 C265.79971,30.3539765 264.885586,30.1306889 263.885968,30.1306889 C263.570299,30.1306889 263.326971,30.1503908 263.169137,30.2554673 C263.011303,30.3539765 262.932385,30.5969659 262.932385,30.8333881 L262.892927,36.5731924 L262.88635,36.5731924 Z" id="Shape"></path>
            <path d="M275.802466,39.1409995 C275.881383,39.1409995 275.920841,39.1804032 275.920841,39.2986143 C275.9603,39.9356406 276.124711,40.690878 276.683708,41.5708938 C277.282163,42.529717 278.32124,43.0091285 279.320858,43.0091285 C280.399393,43.0091285 281.911972,42.3326985 281.911972,40.6777435 C281.911972,38.8454719 281.070189,38.2478492 278.959154,37.4466408 C278.32124,37.2102187 277.005953,36.6519997 276.045794,35.771984 C275.368421,35.1349576 275.046176,34.1367308 275.046176,32.9217837 C275.046176,31.8053458 275.486797,30.8924936 276.44038,30.1306889 C277.236128,29.4542589 278.11737,29.178433 279.274823,29.178433 C280.590109,29.178433 281.392434,29.4936626 281.78702,29.6578446 C281.984313,29.736652 282.102689,29.6972483 282.207912,29.5987391 L282.464393,29.3426151 C282.54331,29.2638077 282.622227,29.224404 282.740603,29.224404 C282.858979,29.224404 282.898437,29.3426151 282.898437,29.5396335 C282.898437,29.8614304 283.220683,32.6459578 283.220683,32.8495436 C283.220683,32.928351 283.181224,32.9677546 283.102307,32.9874565 L282.780062,33.0859657 C282.701144,33.1056676 282.622227,33.0859657 282.582769,32.9677546 C282.378899,32.4095357 282.06323,31.6148946 281.346399,30.8530899 C280.826861,30.294871 280.188947,30.0124778 279.268246,30.0124778 C277.670173,30.0124778 277.032259,31.2865305 277.032259,32.0286333 C277.032259,32.7050634 277.111176,33.302686 277.591256,33.8215013 C278.110794,34.3403165 279.228787,34.8197281 280.024536,35.0561503 C281.181988,35.4107835 282.142147,35.8113877 282.898437,36.612596 C283.536351,37.2890261 283.898055,38.1230709 283.898055,39.4627963 C283.898055,41.8926906 282.299982,43.8891443 279.669409,43.8891443 C278.031877,43.8891443 277.078294,43.5279438 276.275969,42.9303211 C276.032641,42.7727064 275.914265,42.693899 275.795889,42.693899 C275.677513,42.693899 275.598596,42.8515138 275.48022,43.0550995 C275.355268,43.2521179 275.276351,43.2915216 275.118517,43.2915216 C274.960682,43.2915216 274.881765,43.1733106 274.881765,42.9762921 C274.921224,42.7333027 275.197434,39.5087673 275.236892,39.2657779 C275.256622,39.1475668 275.276351,39.1015958 275.355268,39.1015958 L275.795889,39.1409995 L275.802466,39.1409995 Z" id="Path"></path>
            <path d="M291.645094,37.1314113 C291.645094,37.3284298 291.684552,41.9123925 291.684552,42.13568 C291.684552,42.7727064 292.006798,42.8515138 292.480301,42.8515138 L293.322084,42.8515138 C293.401002,42.8515138 293.479919,42.8909174 293.479919,42.9894267 L293.479919,43.4885401 C293.479919,43.6133184 293.401002,43.6527221 293.282626,43.6527221 C293.039298,43.6527221 292.243549,43.5936166 290.369266,43.5936166 C288.376606,43.5936166 287.495364,43.6527221 287.298071,43.6527221 C287.179696,43.6527221 287.140237,43.6133184 287.140237,43.5148092 L287.140237,42.9762921 C287.140237,42.8974847 287.179696,42.8515138 287.298071,42.8515138 L288.100396,42.8515138 C288.494982,42.8515138 288.935603,42.8121101 289.01452,42.273593 C289.053979,41.9911998 289.093438,37.6896303 289.093438,36.612596 L289.093438,35.2203323 C289.093438,34.7409207 289.053979,31.1551849 289.03425,30.8990609 C288.975062,30.4196493 288.777769,30.2226309 288.218772,30.2226309 L287.179696,30.2226309 C287.06132,30.2226309 287.021861,30.1832272 287.021861,30.0847179 L287.021861,29.5659027 C287.021861,29.4673934 287.06132,29.4279898 287.140237,29.4279898 C287.376989,29.4279898 288.416065,29.4870953 290.375842,29.4870953 C292.335619,29.4870953 292.927498,29.4279898 293.210285,29.4279898 C293.328661,29.4279898 293.368119,29.5067971 293.368119,29.6053064 L293.368119,30.0650161 C293.368119,30.1832272 293.289202,30.2291981 293.210285,30.2291981 L292.447419,30.2291981 C292.013374,30.2291981 291.691129,30.3868129 291.691129,30.7677152 C291.691129,30.9647337 291.65167,35.3516779 291.65167,35.5881001 L291.65167,37.1445459 L291.645094,37.1314113 Z" id="Path"></path>
            <path d="M301.910906,30.3145728 L301.35191,30.3145728 C300.713996,30.3145728 299.273757,30.3145728 298.43855,30.5969659 C297.800636,30.8727918 297.037769,32.1928154 296.662913,32.8692454 C296.603725,32.9677546 296.544537,33.046562 296.44589,33.0071583 L296.051304,32.8692454 C295.972387,32.8298417 295.952658,32.7707362 295.972387,32.672227 L296.92597,29.0076837 C296.965428,28.7318579 297.090381,28.6530505 297.169298,28.6530505 C297.287674,28.6530505 297.366591,28.7318579 297.484967,28.850069 C297.886129,29.2441059 298.280715,29.3491824 298.839712,29.3688842 C299.918247,29.4082879 300.753454,29.4870953 302.713231,29.4870953 L303.791766,29.4870953 C305.988295,29.4870953 306.823502,29.4082879 307.744203,29.3688842 C308.125636,29.3491824 308.881926,29.0667893 309.177865,28.850069 C309.342276,28.7318579 309.421193,28.6530505 309.539569,28.6530505 C309.657945,28.6530505 309.697404,28.7318579 309.736862,28.96828 C309.776321,29.3294805 310.177483,31.7987785 310.335318,32.7576016 C310.355047,32.8758127 310.315588,32.9152164 310.2564,32.9349182 L309.861814,33.0728312 C309.782897,33.092533 309.736862,33.0334275 309.684251,32.9152164 C309.401464,32.3569974 308.664904,31.0829448 308.105907,30.6823406 C307.54691,30.3605438 305.751544,30.3211401 305.034712,30.3211401 L304.475715,30.3211401 L304.475715,40.9404348 C304.475715,42.4574769 304.673008,42.8515138 305.153088,42.8515138 L306.31054,42.8515138 C306.389458,42.8515138 306.428916,42.9303211 306.428916,43.0288304 L306.428916,43.4491364 C306.428916,43.5673475 306.389458,43.6527221 306.231623,43.6527221 C306.03433,43.6527221 305.38984,43.5936166 303.239346,43.5936166 C301.207228,43.5936166 300.365445,43.6527221 300.089234,43.6527221 C299.970859,43.6527221 299.9314,43.6133184 299.9314,43.4754055 L299.9314,43.0156958 C299.9314,42.8909174 299.990588,42.8515138 300.069505,42.8515138 L301.207228,42.8515138 C301.60839,42.8515138 301.845142,42.6150916 301.864871,42.3129967 C301.924059,41.7941814 301.924059,35.6997439 301.924059,35.2991397 L301.924059,30.3145728 L301.910906,30.3145728 Z" id="Path"></path>
            <path d="M320.949681,39.8765351 C320.949681,40.6317725 320.98914,41.9517962 321.008869,42.1685165 C321.068057,42.8055428 321.390302,42.8449465 321.784888,42.8449465 L322.442532,42.8449465 C322.541178,42.8449465 322.580637,42.904052 322.580637,42.9828594 L322.580637,43.4425691 C322.580637,43.580482 322.541178,43.6461549 322.442532,43.6461549 C322.225509,43.6461549 321.423184,43.5870493 319.627818,43.5870493 C317.668041,43.5870493 317.030127,43.6461549 316.852563,43.6461549 C316.753917,43.6461549 316.714458,43.5673475 316.714458,43.4688382 L316.714458,43.0091285 C316.714458,42.9303211 316.753917,42.8449465 316.852563,42.8449465 L317.668041,42.8449465 C318.187579,42.8449465 318.35199,42.647928 318.365143,42.3458331 C318.384872,42.0700072 318.424331,40.5135614 318.424331,38.6353188 L318.424331,37.683063 C318.102086,37.0854403 314.873057,31.345636 314.31406,30.6495042 C314.077308,30.3736783 313.636687,30.2160636 313.314442,30.2160636 L312.952738,30.2160636 C312.834362,30.2160636 312.794904,30.1766599 312.794904,30.0781507 L312.794904,29.5396335 C312.794904,29.4608262 312.834362,29.4214225 312.952738,29.4214225 C313.110573,29.4214225 314.070732,29.480528 315.589888,29.480528 C317.622006,29.480528 318.345414,29.4214225 318.542707,29.4214225 C318.661082,29.4214225 318.700541,29.4608262 318.700541,29.5593354 L318.700541,30.0190451 C318.700541,30.1372562 318.661082,30.2226309 318.542707,30.2226309 L318.023168,30.2226309 C317.582547,30.2226309 317.424713,30.3802456 317.464172,30.8005517 C317.50363,31.1617522 319.897452,35.5815328 320.436719,36.6979707 C321.114092,35.5815328 323.692054,31.437578 323.731513,30.9384646 C323.770971,30.5772641 323.652595,30.2226309 323.05414,30.2226309 L322.534602,30.2226309 C322.416226,30.2226309 322.376767,30.1635253 322.376767,30.0584488 L322.376767,29.5593354 C322.376767,29.4608262 322.416226,29.4214225 322.495143,29.4214225 C322.692436,29.4214225 323.53422,29.480528 324.928423,29.480528 C326.204252,29.480528 326.644873,29.4214225 326.842166,29.4214225 C326.960541,29.4214225 327,29.4608262 327,29.5593354 L327,30.0190451 C327,30.1372562 326.960541,30.2226309 326.842166,30.2226309 L326.401545,30.2226309 C326.125334,30.2226309 325.645255,30.3408419 325.323009,30.6823406 C325.007341,31.0369738 321.692818,36.1397518 320.936528,37.4597754 L320.936528,39.8896697 L320.949681,39.8765351 Z" id="Path"></path>
            <path d="M68.9539046,0.945688579 C68.8749874,0.991659552 60.7004807,5.79234255 52.5522796,5.18815262 C43.1611327,4.49858803 35.8349858,0.794641098 35.7626451,0.755237407 L35.2825654,0.512247981 L34.8024858,0.755237407 C34.730145,0.794641098 27.3842688,4.49858803 17.9931219,5.18815262 C9.8514973,5.78577527 1.67041409,0.991659552 1.58492046,0.945688579 L0,0 L0.0197293003,58.5473173 C0.0197293003,71.0054508 0.84178348,75.1362711 8.4178348,84.0218034 C15.8360517,92.7234518 34.138266,99.5731267 34.9142851,99.8620871 L35.275989,100 L35.6442693,99.8620871 C36.4202884,99.5731267 54.7093498,92.730019 62.1341432,84.0218034 C69.6970416,75.1428384 70.5190958,71.0120181 70.5190958,58.5538845 L70.5454015,0.0065672818 L68.9604811,0.945688579 L68.9539046,0.945688579 Z M39.3007662,33.8083667 L39.0442853,33.8083667 C39.0442853,33.8083667 38.9982503,65.8172982 38.9982503,65.8172982 C38.9982503,68.2603271 39.3994127,70.5260393 42.2798906,70.5260393 L46.6992539,70.5260393 L46.6992539,77.7828857 L23.7672305,77.7828857 L23.7672305,70.5260393 L28.1931702,70.5260393 C31.0802244,70.5260393 31.4748104,68.2603271 31.4748104,65.8172982 L31.4287754,34.071058 L31.4287754,33.8083667 C31.4287754,33.8083667 31.1657181,33.8083667 31.1657181,33.8083667 C31.0999537,33.8083667 24.1026286,33.7623957 17.3946665,34.7277862 L17.2828671,34.7409207 L11.804698,42.6676299 L8.52305774,40.7696854 L11.7718159,29.1324621 C12.9029624,28.8632035 20.6828832,27.1360084 35.2431068,27.1360084 C49.8033305,27.1360084 57.5832512,28.8632035 58.7209742,29.1324621 L61.9631559,40.7696854 L58.6749392,42.6676299 L53.2691109,34.8328627 L53.2033465,34.7409207 L53.0915472,34.7277862 C46.3770086,33.7623957 39.3796834,33.8083667 39.3139191,33.8083667 L39.3007662,33.8083667 Z M42.7599702,16.4510409 C45.3445086,17.7710646 56.3008467,19.5507979 56.3008467,19.5507979 L56.5770569,20.9102253 C54.6896205,21.7836737 53.95306,24.9294017 53.6834262,27.7204965 C51.9867064,27.4906416 49.8690948,27.2476522 47.3503208,27.057201 C47.1135692,21.021869 42.0036804,20.6343994 42.0036804,20.6343994 L42.7533938,16.4444736 L42.7599702,16.4510409 Z M14.1656376,19.5573652 C14.1656376,19.5573652 25.1219757,17.7710646 27.7065141,16.4576082 L28.4628039,20.647534 C28.4628039,20.647534 23.3529151,21.0350036 23.1161635,27.0703356 C20.5973895,27.267354 18.4863544,27.5037762 16.7896346,27.7336311 C16.5200008,24.935969 15.7834403,21.790241 13.8960039,20.9233598 L14.1722141,19.5639325 L14.1656376,19.5573652 Z M16.9014339,48.7752019 L16.9014339,36.2185591 L17.585383,35.2334669 C19.466243,34.9642083 21.3668323,34.7803244 23.12274,34.6489788 L23.12274,46.1811256 C23.12274,46.1811256 23.0569756,49.3334209 23.8264184,51.3364418 C24.6945076,53.5890195 26.0097943,54.8302358 30.9355429,55.23084 L30.9486958,63.4465095 C27.6670555,63.2100873 23.3923738,62.270966 20.0055105,58.8888159 C18.5915773,57.3849084 16.9014339,54.1800749 16.9014339,48.7752019 L16.9014339,48.7752019 Z M50.4609738,58.8888159 C47.080687,62.270966 42.7994288,63.2100873 39.5177885,63.4465095 L39.5309414,55.23084 C44.4566901,54.8302358 45.7719768,53.5890195 46.640066,51.3364418 C47.4160851,49.3334209 47.3503208,46.1811256 47.3503208,46.1811256 C47.3503208,46.1811256 47.3503208,39.9225061 47.3503208,34.6489788 C49.1128049,34.7803244 51.0133942,34.9707756 52.8942542,35.2334669 L53.5782032,36.2251264 L53.5782032,48.7817692 C53.5782032,54.1866421 51.8814834,57.3914757 50.4675502,58.8953832 L50.4609738,58.8888159 Z" id="Shape"></path>
            <path d="M86.2959596,62.8423196 C86.0855137,62.6847048 85.9737144,62.6321665 85.8882207,62.6321665 C85.7829978,62.6321665 85.710657,62.7569449 85.6054341,62.9342615 C85.5002112,63.13128 85.4081411,63.1444145 85.2831889,63.1444145 C85.1779659,63.1444145 85.0858959,63.0590399 85.1253545,62.8620214 C85.1976952,62.4220135 85.3752589,60.1694359 85.4278704,59.6506206 C85.4475997,59.5455441 85.4804819,59.5455441 85.5528226,59.5455441 L85.81588,59.5652459 C85.8882207,59.5652459 85.9211029,59.5980824 85.9211029,59.7097261 C85.9408322,60.2745124 85.9737144,60.8590005 86.559017,61.7652853 C87.0917081,62.5993301 88.0650202,63.0787417 89.0449088,63.0787417 C90.110291,63.0787417 91.4584599,62.4220135 91.4584599,60.8261641 C91.4584599,59.0004597 90.1431732,58.3240297 88.7226636,57.8314835 C88.1702431,57.6344651 86.8944151,57.1944572 86.1315488,56.3932488 C85.5462462,55.8087608 85.2437303,54.974716 85.2437303,53.8057398 C85.2437303,52.9191568 85.7961507,52.0522756 86.3419947,51.5334603 C86.9799087,50.9292704 87.8677272,50.6797137 88.8278865,50.6797137 C89.8406572,50.6797137 90.6232528,50.9818086 90.9191923,51.1197215 C91.0770267,51.2050962 91.1690968,51.1919616 91.2545904,51.1000197 L91.4847656,50.8898667 C91.5702592,50.8176266 91.6228707,50.7847902 91.7149408,50.7847902 C91.8070108,50.7847902 91.8596223,50.9292704 91.8596223,51.0868851 C91.8596223,51.7042096 92.0897975,53.5167794 92.1095268,53.904249 C92.1095268,53.9896237 92.0897975,54.0290274 92.0174567,54.0487292 L91.8070108,54.1012675 C91.7543994,54.1209693 91.7149408,54.1012675 91.7017879,54.0487292 C91.5571064,53.5364813 91.3269312,52.8403494 90.6035235,52.0785447 C90.1234439,51.5662967 89.5052591,51.31674 88.6700521,51.31674 C87.0917081,51.31674 86.5195584,52.4857162 86.5195584,53.3920011 C86.5195584,53.8911145 86.6247813,54.4756025 87.0719788,54.9353123 C87.5849406,55.4475603 88.577982,55.8415972 89.0975203,55.9992119 C90.3207369,56.3866816 91.3137783,56.6887765 91.9582688,57.470283 C92.4186192,58.0219347 92.7408644,58.7114993 92.7408644,59.8804755 C92.7408644,61.9688711 91.4650363,63.761739 89.1172496,63.761739 C87.8743036,63.761739 87.0062144,63.387404 86.2959596,62.8423196 L86.2959596,62.8423196 Z" id="Path"></path>
            <path d="M96.5946544,59.2106127 C96.5946544,60.1694359 97.0221226,61.2464701 97.5022022,61.9031983 C98.0875048,62.665003 98.8306418,62.8094832 99.4356736,62.8094832 C100.323492,62.8094832 100.783842,62.6124647 101.388874,62.0476785 C101.421757,62.0148421 101.474368,61.9951402 101.526979,62.0476785 L101.704543,62.2249951 C101.776884,62.2972352 101.790037,62.3497734 101.704543,62.4548499 C101.191581,63.039338 100.053858,63.715768 98.8437946,63.715768 C97.9033646,63.715768 96.9103232,63.505615 96.0948454,62.4745518 C95.4372021,61.6076706 95.299097,60.8590005 95.299097,60.0643594 C95.299097,57.9890983 96.7524888,55.9007027 99.1002755,55.9007027 C100.948253,55.9007027 101.513827,56.9646024 101.513827,57.3389374 C101.494097,57.7461089 101.23104,57.9628292 100.856183,57.9628292 C100.448444,57.9628292 100.145928,57.7329743 99.8828711,57.2535628 C99.4948615,56.5245945 99.1200048,56.4720562 98.6925367,56.4720562 C97.6797659,56.4720562 96.5946544,57.3914757 96.5946544,59.21718 L96.5946544,59.2106127 Z" id="Path"></path>
            <path d="M104.650785,53.8385762 C104.650785,52.7549747 104.440339,52.5645235 103.795849,52.3478032 L103.493333,52.2427267 C103.38811,52.2098903 103.368381,52.1901885 103.368381,52.1376502 L103.368381,51.9800355 C103.368381,51.9077954 103.420992,51.8946608 103.578827,51.8027189 L105.426804,50.8307611 C105.571486,50.758521 105.696438,50.6862809 105.834543,50.6862809 C105.939766,50.6862809 106.012107,50.8307611 105.979225,51.1262888 C105.946343,51.4283838 105.926613,55.0272542 105.926613,55.9138373 L105.926613,57.049977 L106.012107,57.049977 C106.630292,56.3078742 107.662792,55.9007027 108.445387,55.9007027 C109.227983,55.9007027 109.708063,56.1305576 110.201295,56.6099691 C110.997044,57.352072 110.964161,58.2583569 110.964161,59.21718 L110.964161,60.2285414 C110.964161,61.220201 110.997044,62.316937 110.997044,62.6584357 C110.997044,62.8685887 111.27983,62.9211269 111.654687,62.9211269 L111.957203,62.9211269 C112.101884,62.9211269 112.154496,62.9539634 112.154496,63.0787417 L112.154496,63.341433 C112.154496,63.4859132 112.121614,63.551586 112.009814,63.551586 C111.884862,63.551586 111.319289,63.4990477 110.306518,63.4990477 C109.438429,63.4990477 108.800515,63.551586 108.636104,63.551586 C108.511152,63.551586 108.47827,63.4990477 108.47827,63.3545675 L108.47827,63.0524726 C108.47827,62.9670979 108.497999,62.9079924 108.603222,62.9079924 L109.010961,62.9079924 C109.313477,62.9079924 109.668604,62.875156 109.688333,62.573061 C109.708063,62.3235043 109.688333,61.384383 109.688333,60.8195968 L109.688333,59.3813621 C109.688333,58.3897025 109.615993,57.6804361 109.103031,57.2010245 C108.747903,56.8660931 108.373047,56.7019111 107.932426,56.7019111 C107.419464,56.7019111 106.78155,56.8792277 106.281741,57.4440139 C106.123906,57.6410324 105.926613,57.9956656 105.926613,58.3108951 L105.926613,62.1724568 C105.926613,62.7372431 105.979225,62.9014251 106.314623,62.9014251 L106.847314,62.9014251 C106.972266,62.9014251 107.044607,62.9342615 107.044607,63.0459053 L107.044607,63.3480003 C107.044607,63.4727786 107.011725,63.5450187 106.899926,63.5450187 C106.755244,63.5450187 106.031836,63.4924805 105.216359,63.4924805 C104.32854,63.4924805 103.651167,63.5450187 103.493333,63.5450187 C103.420992,63.5450187 103.368381,63.4924805 103.368381,63.3677021 L103.368381,63.0459053 C103.368381,62.9211269 103.440722,62.9014251 103.638015,62.9014251 L104.012871,62.9014251 C104.295658,62.9014251 104.565292,62.829185 104.598174,62.619032 C104.650785,62.2841006 104.650785,60.3336179 104.650785,59.1777763 L104.650785,53.8254416 L104.650785,53.8385762 Z" id="Path"></path>
            <path d="M115.061279,62.4876863 C114.245802,61.5157286 114.087967,60.8590005 114.087967,59.5980824 C114.087967,58.6917975 114.568047,57.562225 115.6137,56.7413148 C116.534401,56.0320483 117.409066,55.8875681 117.994369,55.8875681 C118.967681,55.8875681 119.94757,56.3866816 120.480261,56.9186314 C121.276009,57.7329743 121.690324,58.6523938 121.690324,59.8082354 C121.690324,61.7390162 119.954146,63.7092008 117.77077,63.7092008 C116.915834,63.7092008 115.817569,63.3742694 115.074432,62.4876863 L115.061279,62.4876863 Z M120.190898,59.637486 C120.190898,57.6673015 118.750659,56.4260852 117.849687,56.4260852 C117.369608,56.4260852 116.909257,56.5311618 116.481789,56.9908715 C115.791264,57.7001379 115.541359,58.4291062 115.541359,59.775399 C115.541359,60.7670585 115.646582,61.4434885 116.218732,62.2578315 C116.626471,62.8423196 117.139432,63.1772509 117.97464,63.1772509 C119.322808,63.1772509 120.190898,61.5288632 120.190898,59.6309188 L120.190898,59.637486 Z" id="Shape"></path>
            <path d="M124.879895,62.4876863 C124.064417,61.5157286 123.906582,60.8590005 123.906582,59.5980824 C123.906582,58.6917975 124.386662,57.562225 125.432315,56.7413148 C126.353016,56.0320483 127.227681,55.8875681 127.812984,55.8875681 C128.786296,55.8875681 129.766185,56.3866816 130.298876,56.9186314 C131.094624,57.7329743 131.502363,58.6523938 131.502363,59.8082354 C131.502363,61.7390162 129.759608,63.7092008 127.576232,63.7092008 C126.727872,63.7092008 125.623032,63.3742694 124.879895,62.4876863 L124.879895,62.4876863 Z M130.009513,59.637486 C130.009513,57.6673015 128.569274,56.4260852 127.668302,56.4260852 C127.188223,56.4260852 126.727872,56.5311618 126.300404,56.9908715 C125.609879,57.7001379 125.359974,58.4291062 125.359974,59.775399 C125.359974,60.7670585 125.465197,61.4434885 126.037347,62.2578315 C126.445086,62.8423196 126.958048,63.1772509 127.793255,63.1772509 C129.141423,63.1772509 130.016089,61.5288632 130.016089,59.6309188 L130.009513,59.637486 Z" id="Shape"></path>
            <path d="M136.079561,58.2189532 C136.079561,59.1383726 136.079561,61.8178236 136.09929,62.3694753 C136.119019,62.6715702 136.184784,62.9211269 136.55964,62.9211269 L137.355389,62.9211269 C137.513223,62.9211269 137.552682,62.9736652 137.552682,63.0787417 L137.552682,63.3808367 C137.552682,63.4859132 137.5198,63.5581533 137.447459,63.5581533 C137.322507,63.5581533 136.539911,63.505615 135.441647,63.505615 C134.343382,63.505615 133.593669,63.5581533 133.435835,63.5581533 C133.350341,63.5581533 133.310882,63.4859132 133.310882,63.3808367 L133.310882,63.0787417 C133.310882,62.9539634 133.343764,62.9211269 133.541057,62.9211269 L134.395994,62.9211269 C134.593287,62.9211269 134.770851,62.7963486 134.784003,62.4811191 C134.803733,61.9294674 134.803733,58.8822486 134.803733,57.8577527 L134.803733,56.7413148 C134.803733,55.4803967 134.784003,53.8714126 134.751121,53.4051356 C134.718239,52.8009457 134.428876,52.5185526 133.863303,52.341236 L133.508175,52.2164576 C133.422682,52.1836212 133.402952,52.1639194 133.402952,52.1310829 L133.402952,51.9866027 C133.402952,51.9340645 133.455564,51.9012281 133.560787,51.8618244 C134.185548,51.5794313 134.981296,51.2576345 135.63894,50.8307611 C135.796774,50.7256846 135.908573,50.6862809 136.013796,50.6862809 C136.138749,50.6862809 136.171631,50.7716556 136.158478,51.0080778 C136.138749,51.9800355 136.086137,55.6708478 136.086137,56.6428055 L136.086137,58.2189532 L136.079561,58.2189532 Z" id="Path"></path>
            <path d="M145.030087,61.3909503 C145.030087,59.1580745 146.713654,56.1239903 149.074593,56.1239903 C150.264928,56.1239903 150.975183,56.9908715 150.975183,58.1992513 C150.975183,60.149734 149.429721,63.6763644 146.858335,63.6763644 C145.885023,63.6763644 145.030087,62.7372431 145.030087,61.3909503 Z M150.271504,57.9365601 C150.291233,57.3849084 149.968988,56.9449005 149.383686,56.9449005 C148.640549,56.9449005 147.700119,57.6213305 146.8123,59.052998 C146.207268,60.0118211 145.7798,61.0888553 145.7798,61.9229001 C145.7798,62.4876863 146.16781,62.829185 146.595278,62.829185 C148.443256,62.829185 150.271504,59.1055362 150.271504,57.9365601 L150.271504,57.9365601 Z" id="Shape"></path>
            <path d="M153.342699,57.26013 C153.257205,57.26013 153.217746,57.2075918 153.257205,57.0828134 L153.329546,56.7807185 C153.362428,56.6559401 153.401886,56.6034019 153.539992,56.6034019 L155.085453,56.6034019 C155.618145,55.0797925 156.223176,53.6087214 157.163606,52.5645235 C157.656839,51.9997373 158.636727,51.3561437 159.79418,51.3561437 C160.82668,51.3561437 161.392253,51.9800355 161.392253,52.4003415 C161.392253,52.9519932 161.037126,53.2146844 160.681998,53.2146844 C160.116425,53.2146844 159.952014,52.8928876 159.899403,52.505418 C159.879673,52.3281014 159.70211,51.99317 159.169419,51.99317 C157.518734,51.99317 156.88082,54.6200827 156.295517,56.6034019 L158.018543,56.6034019 C158.123766,56.6034019 158.156648,56.6559401 158.123766,56.8135549 L158.031696,57.1353517 C158.011966,57.2404282 157.979084,57.26013 157.834403,57.26013 L156.150836,57.26013 C155.690485,58.6983647 154.875008,61.7652853 153.987189,64.0309976 C152.902078,66.7958232 151.645979,68.7660077 149.745389,68.7660077 C149.035135,68.7660077 148.469561,68.2865962 148.469561,67.7218099 C148.469561,67.3146385 148.772077,66.9600053 149.232428,66.9600053 C149.745389,66.9600053 150.015023,67.4591187 150.067635,67.7546464 C150.100517,67.931963 150.225469,68.0567413 150.370151,68.0567413 C151.225087,68.0567413 152.17867,66.5659683 153.138829,63.2888947 L154.934195,57.26013 L153.355851,57.26013 L153.342699,57.26013 Z" id="Path"></path>
            <path d="M171.204292,58.8034413 C171.204292,59.637486 171.224021,62.0476785 171.237174,62.2972352 C171.270056,62.6847048 171.44762,62.8620214 171.822477,62.8620214 L172.9602,62.8620214 C173.085152,62.8620214 173.104881,62.9145597 173.104881,62.9867998 L173.104881,63.4136731 C173.104881,63.4990477 173.085152,63.5581533 172.947047,63.5581533 C172.697142,63.5581533 172.151298,63.505615 170.480884,63.505615 C168.915693,63.505615 168.225167,63.5581533 168.027874,63.5581533 C167.902922,63.5581533 167.889769,63.505615 167.889769,63.4333749 L167.889769,62.993367 C167.889769,62.9014251 167.909499,62.8685887 167.994992,62.8685887 L168.757859,62.8685887 C169.36289,62.8685887 169.487843,62.783214 169.540454,62.3038025 C169.560183,62.1264858 169.612795,59.3616602 169.612795,57.306101 L169.612795,55.2702436 C169.612795,54.1012675 169.593066,52.1704866 169.579913,51.99317 C169.547031,51.6385368 169.369467,51.6057004 168.889387,51.6057004 L167.876616,51.6057004 C167.791123,51.6057004 167.771394,51.572864 167.771394,51.4612202 L167.771394,51.0343469 C167.771394,50.9489722 167.791123,50.9095685 167.876616,50.9095685 C168.073909,50.9095685 168.711824,50.9621068 170.39539,50.9621068 C170.717636,50.9621068 171.763289,50.9095685 172.348591,50.9095685 C174.354403,50.9095685 175.294833,51.106587 176.307604,51.7961516 C177.142811,52.3609378 177.655773,53.3591646 177.655773,54.3639588 C177.655773,56.5968346 175.972206,57.982531 173.14434,57.982531 C172.486696,57.982531 171.776441,57.9628292 171.210868,57.8971564 L171.210868,58.8165758 L171.204292,58.8034413 Z M171.204292,57.2404282 C171.559419,57.3455047 172.144722,57.398043 172.835247,57.398043 C173.920359,57.398043 174.873942,56.8135549 175.340868,56.1896631 C175.728878,55.6774151 175.801219,55.0206869 175.801219,54.3967952 C175.801219,52.0719774 173.637572,51.4546529 172.585343,51.4546529 C172.282827,51.4546529 171.552843,51.4546529 171.197715,51.5794313 L171.197715,57.2338609 L171.204292,57.2404282 Z" id="Shape"></path>
            <path d="M179.70762,58.7837394 C179.70762,57.8774545 179.569515,57.7001379 179.069706,57.4374466 L178.734308,57.26013 C178.629085,57.2272936 178.596203,57.2075918 178.596203,57.1353517 L178.596203,57.0302752 C178.596203,56.9580351 178.629085,56.9251987 178.734308,56.8726604 L180.490216,55.9663755 C180.595439,55.9138373 180.667779,55.8941354 180.74012,55.8941354 C180.845343,55.8941354 180.865073,55.9992119 180.865073,56.1042884 L180.950566,57.3652065 L181.022907,57.3652065 C181.555598,56.5508636 182.390805,55.8218953 183.153671,55.8218953 C183.758703,55.8218953 184.061219,56.1962304 184.061219,56.6034019 C184.061219,57.1156498 183.633751,57.470283 183.318082,57.470283 C183.120789,57.470283 182.943225,57.398043 182.80512,57.3258029 C182.660439,57.2404282 182.449993,57.1813227 182.219818,57.1813227 C181.937031,57.1813227 181.476681,57.3586393 181.174165,57.9234255 C181.068942,58.1204439 180.996601,58.4356735 180.996601,58.4882117 L180.996601,62.1724568 C180.996601,62.7241085 181.121553,62.9014251 181.489834,62.9014251 L182.325041,62.9014251 C182.430264,62.9014251 182.449993,62.9539634 182.449993,63.0590399 L182.449993,63.3808367 C182.449993,63.4859132 182.430264,63.5384514 182.357923,63.5384514 C182.2527,63.5384514 181.437222,63.4859132 180.477063,63.4859132 C179.378799,63.4859132 178.629085,63.5384514 178.523862,63.5384514 C178.451521,63.5384514 178.418639,63.505615 178.418639,63.3611348 L178.418639,63.0590399 C178.418639,62.9342615 178.451521,62.9014251 178.615932,62.9014251 L179.306458,62.9014251 C179.576092,62.9014251 179.694467,62.7963486 179.694467,62.5664937 C179.714197,61.9820056 179.714197,61.3581139 179.714197,60.4386944 L179.714197,58.7706048 L179.70762,58.7837394 Z" id="Path"></path>
            <path d="M185.639563,62.4876863 C184.824085,61.5157286 184.666251,60.8590005 184.666251,59.5980824 C184.666251,58.6917975 185.146331,57.562225 186.191984,56.7413148 C187.112684,56.0320483 187.98735,55.8875681 188.572652,55.8875681 C189.545965,55.8875681 190.525853,56.3866816 191.058544,56.9186314 C191.854293,57.7329743 192.262032,58.6523938 192.262032,59.8082354 C192.262032,61.7390162 190.525853,63.7092008 188.342477,63.7092008 C187.494117,63.7092008 186.389277,63.3742694 185.64614,62.4876863 L185.639563,62.4876863 Z M190.769181,59.637486 C190.769181,57.6673015 189.328942,56.4260852 188.427971,56.4260852 C187.947891,56.4260852 187.487541,56.5311618 187.060073,56.9908715 C186.369547,57.7001379 186.119643,58.4291062 186.119643,59.775399 C186.119643,60.7670585 186.224866,61.4434885 186.797015,62.2578315 C187.204754,62.8423196 187.717716,63.1772509 188.552923,63.1772509 C189.901092,63.1772509 190.769181,61.5288632 190.769181,59.6309188 L190.769181,59.637486 Z" id="Shape"></path>
            <path d="M193.557589,56.9449005 C193.465519,56.9449005 193.432637,56.9120641 193.465519,56.7478821 L193.53786,56.2159322 C193.557589,56.1108557 193.610201,56.0911539 193.748306,56.0911539 L194.774229,56.0911539 L194.774229,55.7693571 C194.774229,54.0158928 195.274038,52.8600512 195.964564,52.085112 C196.904994,51.0540487 197.884882,50.6862809 198.877924,50.6862809 C199.713131,50.6862809 200.495726,51.0080778 200.495726,51.6779405 C200.495726,52.1048138 200.035376,52.4397452 199.752589,52.4397452 C199.575026,52.4397452 199.397462,52.4069088 199.25278,52.3346687 C199.094946,52.2427267 198.897653,52.0128719 198.825312,51.9274972 C198.595137,51.6451041 198.345233,51.5203257 198.009834,51.5203257 C197.549484,51.5203257 197.069405,51.6451041 196.681395,52.1442175 C196.023752,52.9782623 196.056634,54.5215735 196.056634,55.7627898 L196.056634,56.0977212 L198.207127,56.0977212 C198.33208,56.0977212 198.351809,56.2027977 198.33208,56.2750378 L198.246586,56.8595258 C198.226857,56.9317659 198.161092,56.9449005 198.016411,56.9449005 L196.06321,56.9449005 L196.06321,58.54075 C196.06321,60.6291456 196.06321,62.2643988 196.082939,62.4548499 C196.115822,62.7569449 196.168433,62.9145597 196.54329,62.9145597 L197.556061,62.9145597 C197.713895,62.9145597 197.753354,62.9473961 197.753354,63.0590399 L197.753354,63.341433 C197.753354,63.4859132 197.720471,63.551586 197.628401,63.551586 C197.523178,63.551586 196.865535,63.4990477 195.497637,63.4990477 C194.524325,63.4990477 193.616777,63.551586 193.472095,63.551586 C193.366872,63.551586 193.327414,63.5187496 193.327414,63.4268076 L193.327414,63.039338 C193.327414,62.9473961 193.360296,62.9145597 193.504978,62.9145597 L194.359914,62.9145597 C194.695312,62.9145597 194.767653,62.7044066 194.787382,62.2972352 L194.787382,56.9449005 L193.564165,56.9449005 L193.557589,56.9449005 Z" id="Path"></path>
            <path d="M200.429962,58.7837394 C200.39708,58.9413542 200.377351,59.2237473 200.377351,59.637486 C200.377351,61.3712484 201.475615,62.6847048 202.896125,62.6847048 C203.981236,62.6847048 204.744102,62.060813 205.046618,61.4763249 C205.0795,61.4040848 205.151841,61.3712484 205.204453,61.3909503 L205.434628,61.5157286 C205.487239,61.5354305 205.520121,61.5879687 205.434628,61.7784199 C205.112383,62.4876863 204.191682,63.7092008 202.613338,63.7092008 C201.600567,63.7092008 200.482573,63.4071058 199.82493,62.4482827 C199.206745,61.5419978 199.042335,60.8852696 199.042335,59.6506206 C199.042335,58.961056 199.219898,57.772378 200.160328,56.8332567 C200.923194,56.0517502 201.811013,55.8941354 202.698832,55.8941354 C204.744102,55.8941354 205.309676,57.8117817 205.309676,58.5013463 C205.309676,58.750903 205.09923,58.7837394 204.809867,58.7837394 L200.423386,58.7837394 L200.429962,58.7837394 Z M203.251252,58.2517896 C203.58665,58.2517896 203.731332,58.1598476 203.731332,58.0022329 C203.731332,57.5950614 203.520886,56.4260852 202.363433,56.4260852 C201.580838,56.4260852 200.837701,56.9383332 200.502303,58.2517896 L203.251252,58.2517896 Z" id="Shape"></path>
            <path d="M207.105042,63.1969528 C207.019548,63.1444145 207.019548,63.039338 206.999819,62.9473961 L206.697303,61.2661719 C206.677574,61.17423 206.730185,61.1413936 206.802526,61.1216917 L207.032701,61.0691535 C207.105042,61.0494516 207.157653,61.0888553 207.190536,61.17423 L207.631157,62.0411112 C207.986284,62.6978394 208.236188,63.1378472 209.176618,63.1378472 C209.80138,63.1378472 210.577399,62.7635122 210.577399,61.9360347 C210.577399,61.1085572 210.189389,60.6751166 208.854373,60.3073488 C207.80872,60.0052538 206.763067,59.4536022 206.763067,58.0547711 C206.763067,56.8332567 207.913943,55.8941354 209.248959,55.8941354 C210.103896,55.8941354 210.564246,56.1042884 210.879915,56.2684705 C211.142972,56.3932488 211.182431,56.4786235 211.20216,56.5902673 L211.465217,57.8314835 C211.465217,57.9037236 211.432335,57.9562619 211.340265,57.9890983 L211.129819,58.0613384 C211.057478,58.0810403 211.024596,58.0613384 210.971985,57.9693965 L210.366953,57.1550535 C210.156507,56.8201222 209.814533,56.4654889 209.124007,56.4654889 C208.433481,56.4654889 207.756109,56.8726604 207.756109,57.6344651 C207.756109,58.6655283 208.591316,58.8559795 209.459405,59.1055362 C210.754962,59.4798713 211.57044,60.0118211 211.59017,61.3778157 C211.57044,62.8160504 210.399835,63.715768 208.893832,63.715768 C208.025743,63.715768 207.315488,63.3611348 207.098465,63.2035201 L207.105042,63.1969528 Z" id="Path"></path>
            <path d="M213.424994,63.1969528 C213.339501,63.1444145 213.339501,63.039338 213.319772,62.9473961 L213.017256,61.2661719 C212.997526,61.17423 213.050138,61.1413936 213.122479,61.1216917 L213.352654,61.0691535 C213.424994,61.0494516 213.477606,61.0888553 213.510488,61.17423 L213.951109,62.0411112 C214.306237,62.6978394 214.556141,63.1378472 215.496571,63.1378472 C216.114756,63.1378472 216.897351,62.7635122 216.897351,61.9360347 C216.897351,61.1085572 216.509342,60.6751166 215.174326,60.3073488 C214.128673,60.0052538 213.076443,59.4536022 213.076443,58.0547711 C213.076443,56.8332567 214.227319,55.8941354 215.562335,55.8941354 C216.410695,55.8941354 216.877622,56.1042884 217.193291,56.2684705 C217.462925,56.3932488 217.495807,56.4786235 217.515536,56.5902673 L217.778593,57.8314835 C217.778593,57.9037236 217.745711,57.9562619 217.653641,57.9890983 L217.443195,58.0613384 C217.370855,58.0810403 217.337972,58.0613384 217.285361,57.9693965 L216.680329,57.1550535 C216.469883,56.8201222 216.127909,56.4654889 215.437383,56.4654889 C214.746858,56.4654889 214.069485,56.8726604 214.069485,57.6344651 C214.069485,58.6655283 214.904692,58.8559795 215.772781,59.1055362 C217.068339,59.4798713 217.883816,60.0118211 217.903546,61.3778157 C217.883816,62.8160504 216.713211,63.715768 215.207208,63.715768 C214.339119,63.715768 213.628864,63.3611348 213.411842,63.2035201 L213.424994,63.1969528 Z" id="Path"></path>
            <path d="M220.40259,58.3437315 C220.40259,57.7395416 220.297367,57.4243121 219.409549,57.2798319 C219.284597,57.26013 219.251714,57.2272936 219.251714,57.1550535 L219.251714,56.9974388 C219.251714,56.9449005 219.284597,56.9120641 219.376667,56.8726604 C219.94224,56.6625074 220.619613,56.373547 221.296985,56.0057792 C221.441667,55.9335391 221.52716,55.9007027 221.632383,55.9007027 C221.724453,55.9007027 221.737606,55.9926446 221.724453,56.1108557 C221.691571,56.4129507 221.691571,57.5293886 221.691571,59.0004597 L221.691571,60.9312406 C221.691571,61.6208051 221.691571,62.2578315 221.711301,62.4548499 C221.744183,62.7897813 221.796794,62.9145597 221.994087,62.9145597 L222.809565,62.9145597 C222.94767,62.9145597 222.987129,62.9670979 222.987129,63.0721744 L222.987129,63.3742694 C222.987129,63.4990477 222.954247,63.551586 222.829294,63.551586 C222.684613,63.551586 221.869135,63.4990477 221.125998,63.4990477 C220.093498,63.4990477 219.402972,63.551586 219.205679,63.551586 C219.120186,63.551586 219.060998,63.5187496 219.060998,63.4071058 L219.060998,63.0524726 C219.060998,62.9473961 219.113609,62.9079924 219.238562,62.9079924 L220.106651,62.9079924 C220.303944,62.9079924 220.369708,62.8357523 220.389437,62.5533592 C220.409167,62.0214093 220.409167,61.4697577 220.409167,60.9378078 L220.409167,58.330597 L220.40259,58.3437315 Z M219.567383,52.8994549 C219.567383,52.4397452 219.955393,51.9077954 220.685377,51.9077954 C221.34302,51.9077954 221.645536,52.4397452 221.645536,52.8469167 C221.645536,53.3263282 221.323291,53.8911145 220.580154,53.8911145 C220.172415,53.8911145 219.567383,53.483943 219.567383,52.8994549 L219.567383,52.8994549 Z" id="Shape"></path>
            <path d="M224.933753,62.4876863 C224.118275,61.5157286 223.960441,60.8590005 223.960441,59.5980824 C223.960441,58.6917975 224.44052,57.562225 225.486173,56.7413148 C226.406874,56.0320483 227.28154,55.8875681 227.866842,55.8875681 C228.840154,55.8875681 229.820043,56.3866816 230.352734,56.9186314 C231.148483,57.7329743 231.562798,58.6523938 231.562798,59.8082354 C231.562798,61.7390162 229.826619,63.7092008 227.643244,63.7092008 C226.788307,63.7092008 225.690043,63.3742694 224.946906,62.4876863 L224.933753,62.4876863 Z M230.063371,59.637486 C230.063371,57.6673015 228.623132,56.4260852 227.722161,56.4260852 C227.242081,56.4260852 226.781731,56.5311618 226.354263,56.9908715 C225.663737,57.7001379 225.413833,58.4291062 225.413833,59.775399 C225.413833,60.7670585 225.519056,61.4434885 226.091205,62.2578315 C226.498944,62.8423196 227.011906,63.1772509 227.847113,63.1772509 C229.195282,63.1772509 230.063371,61.5288632 230.063371,59.6309188 L230.063371,59.637486 Z" id="Shape"></path>
            <path d="M240.131891,62.5467919 C240.131891,62.829185 240.289725,62.9211269 240.5199,62.9211269 L241.085474,62.9211269 C241.243308,62.9211269 241.282767,62.9736652 241.282767,63.0787417 L241.282767,63.3611348 C241.282767,63.4859132 241.249884,63.5581533 241.144661,63.5581533 C241.019709,63.5581533 240.467289,63.505615 239.461094,63.505615 C238.553547,63.505615 237.987973,63.5581533 237.863021,63.5581533 C237.757798,63.5581533 237.71834,63.505615 237.71834,63.3611348 L237.71834,63.0787417 C237.71834,62.9539634 237.770951,62.9211269 237.948515,62.9211269 L238.461477,62.9211269 C238.65877,62.9211269 238.796875,62.8357523 238.816604,62.5139555 C238.836333,62.0542457 238.849486,61.4828922 238.849486,61.0231825 L238.849486,58.6852302 C238.849486,57.9759637 238.849486,57.4637158 238.336524,57.0893807 C237.909056,56.7675839 237.488164,56.7675839 237.040967,56.7675839 C236.75818,56.7675839 236.133419,56.8923623 235.600728,57.4571485 C235.245601,57.8446181 235.192989,58.3240297 235.192989,58.6589611 L235.192989,62.3300716 C235.192989,62.8094832 235.245601,62.9145597 235.620457,62.9145597 L236.061078,62.9145597 C236.20576,62.9145597 236.238642,62.9670979 236.238642,63.0918763 L236.238642,63.3939712 C236.238642,63.4990477 236.20576,63.551586 236.11369,63.551586 C235.988738,63.551586 235.508658,63.4990477 234.568228,63.4990477 C233.627798,63.4990477 233.095107,63.551586 232.989884,63.551586 C232.90439,63.551586 232.864932,63.4990477 232.864932,63.3939712 L232.864932,63.0721744 C232.864932,62.9670979 232.897814,62.9145597 233.042495,62.9145597 L233.555457,62.9145597 C233.785632,62.9145597 233.910585,62.8620214 233.910585,62.5599264 L233.910585,58.4094043 C233.910585,57.8774545 233.627798,57.5753596 233.180601,57.3652065 L233.042495,57.2929664 C232.917543,57.2404282 232.897814,57.1878899 232.897814,57.1353517 L232.897814,57.049977 C232.897814,56.9646024 232.970155,56.9054968 233.055648,56.8726604 L234.581381,56.0189138 C234.726062,55.9466737 234.831285,55.8941354 234.903626,55.8941354 C234.98912,55.8941354 235.028578,55.9663755 235.048308,56.1042884 L235.17326,57.1878899 L235.206142,57.1878899 C235.719104,56.5508636 236.751604,55.8941354 237.639422,55.8941354 C238.172114,55.8941354 238.724534,55.9992119 239.145426,56.281605 C239.678117,56.6362383 240.118738,57.5228213 240.118738,57.9628292 L240.118738,62.5336573 L240.131891,62.5467919 Z" id="Path"></path>
            <path d="M248.122257,62.7175412 C248.405044,62.7175412 248.654948,62.573061 248.747018,62.4482827 C248.819359,62.362908 248.852241,62.3235043 248.924582,62.3760426 L249.102146,62.5205228 C249.154757,62.573061 249.18764,62.665003 249.082417,62.8423196 C248.944311,63.1050108 248.602337,63.7092008 247.694789,63.7092008 C247.056875,63.7092008 246.596525,63.249491 246.432114,62.5205228 L246.399232,62.5205228 C246.024375,62.9605306 245.439072,63.3348657 244.643324,63.6041243 C244.307926,63.7092008 243.985681,63.7092008 243.597671,63.7092008 C243.170203,63.7092008 242.532289,63.3545675 242.532289,62.2381296 C242.532289,61.4237867 242.907146,60.7145203 244.307926,60.0906285 C245.103674,59.7359953 246.030951,59.309122 246.313738,59.0595652 L246.313738,57.9234255 C246.280856,57.6213305 246.261127,57.1616208 246.063834,56.9317659 C245.866541,56.7019111 245.511413,56.5442963 244.998451,56.5442963 C244.643324,56.5442963 244.090904,56.6887765 243.847576,56.9186314 C243.597671,57.1484862 243.762082,57.4177448 243.762082,57.7329743 C243.762082,58.3502988 243.551636,58.7443357 242.821652,58.7443357 C242.538865,58.7443357 242.394184,58.586721 242.394184,58.1795495 C242.394184,57.6147632 242.893993,56.9383332 243.6174,56.5114599 C244.360537,56.071452 244.985299,55.8875681 245.781047,55.8875681 C246.576795,55.8875681 246.951652,56.1371248 247.201557,56.3669797 C247.576413,56.7413148 247.589566,57.1484862 247.589566,57.6278978 L247.589566,61.384383 C247.589566,62.3957444 247.800012,62.7109739 248.122257,62.7109739 L248.122257,62.7175412 Z M246.294009,59.5980824 C245.656095,60.0774939 243.91334,60.4321271 243.91334,61.9031983 C243.91334,62.5599264 244.301349,62.875156 244.834041,62.875156 C245.366732,62.875156 246.287432,62.2512642 246.287432,61.7784199 L246.287432,59.5980824 L246.294009,59.5980824 Z" id="Shape"></path>
            <path d="M252.186493,58.2189532 C252.186493,59.1383726 252.186493,61.8178236 252.206222,62.3694753 C252.225952,62.6715702 252.291716,62.9211269 252.666573,62.9211269 L253.462321,62.9211269 C253.620156,62.9211269 253.659614,62.9736652 253.659614,63.0787417 L253.659614,63.3808367 C253.659614,63.4859132 253.626732,63.5581533 253.554391,63.5581533 C253.429439,63.5581533 252.646844,63.505615 251.548579,63.505615 C250.450315,63.505615 249.700601,63.5581533 249.542767,63.5581533 C249.457273,63.5581533 249.417815,63.4859132 249.417815,63.3808367 L249.417815,63.0787417 C249.417815,62.9539634 249.450697,62.9211269 249.64799,62.9211269 L250.502926,62.9211269 C250.700219,62.9211269 250.877783,62.7963486 250.890936,62.4811191 C250.910665,61.9294674 250.910665,58.8822486 250.910665,57.8577527 L250.910665,56.7413148 C250.910665,55.4803967 250.890936,53.8714126 250.858054,53.4051356 C250.825171,52.8009457 250.535808,52.5185526 249.970235,52.341236 L249.615108,52.2164576 C249.529614,52.1836212 249.509885,52.1639194 249.509885,52.1310829 L249.509885,51.9866027 C249.509885,51.9340645 249.562496,51.9012281 249.667719,51.8618244 C250.285904,51.5794313 251.088229,51.2576345 251.745872,50.8307611 C251.903707,50.7256846 252.008929,50.6862809 252.120729,50.6862809 C252.245681,50.6862809 252.278563,50.7716556 252.26541,51.0080778 C252.245681,51.9800355 252.19307,55.6708478 252.19307,56.6428055 L252.19307,58.2189532 L252.186493,58.2189532 Z" id="Path"></path>
            <path d="M87.8216922,79.5888882 C87.6441285,80.028896 86.6708163,82.7280489 86.5787463,83.0958166 C86.559017,83.220595 86.5261348,83.3979116 86.5261348,83.4832863 C86.5261348,83.732843 86.7365807,83.8707559 87.1311667,83.8707559 L87.9663737,83.8707559 C88.0913259,83.8707559 88.1439374,83.9035923 88.1439374,83.9955342 L88.1439374,84.4027057 C88.1439374,84.5274841 88.0913259,84.5603205 87.9992559,84.5603205 C87.7493514,84.5603205 87.0259437,84.5077822 85.9737144,84.5077822 C84.678157,84.5077822 84.2901474,84.5603205 84.0402429,84.5603205 C83.9547493,84.5603205 83.9152907,84.5274841 83.9152907,84.4158403 L83.9152907,83.988967 C83.9152907,83.897025 83.9876315,83.8641886 84.0599722,83.8641886 L84.6847334,83.8641886 C85.2174245,83.8641886 85.467329,83.6146319 85.710657,83.0498457 C85.8356093,82.7674526 87.1311667,79.4838117 87.6441285,78.0324424 C87.7690807,77.6778092 89.2093196,73.8687857 89.367154,73.3893741 C89.4197655,73.2120575 89.5118356,72.9822027 89.3868833,72.7851842 C89.3342719,72.7129441 89.2619311,72.6275694 89.2619311,72.5553293 C89.2619311,72.5027911 89.2948133,72.430551 89.4197655,72.3977146 C89.9195744,72.2926381 90.6955936,71.7606883 90.8928866,71.5111315 C90.9783802,71.4191896 91.0309917,71.3535168 91.1230618,71.3535168 C91.2282847,71.3535168 91.2677433,71.4585933 91.3203548,71.6556117 C91.6557529,72.7720496 93.0433803,76.7452551 93.3787784,77.8748276 C93.7865173,79.2605241 94.9439696,82.5572995 95.1872976,83.0695475 C95.4898136,83.6540356 95.9501639,83.8641886 96.3973614,83.8641886 L96.982664,83.8641886 C97.0878869,83.8641886 97.1273455,83.9167269 97.1273455,83.988967 L97.1273455,84.4289748 C97.1273455,84.5143495 97.074734,84.5537532 96.9497818,84.5537532 C96.6275366,84.5537532 96.2592563,84.5012149 94.8190174,84.5012149 C93.3787784,84.5012149 92.7211351,84.5537532 92.3133962,84.5537532 C92.2213261,84.5537532 92.1687147,84.5012149 92.1687147,84.3961384 L92.1687147,83.988967 C92.1687147,83.8838905 92.2213261,83.8641886 92.3265491,83.8641886 L92.7737466,83.8641886 C93.2735555,83.8641886 93.4313899,83.686872 93.3064377,83.1877586 C93.1683326,82.5507323 92.4383485,80.2784527 92.188444,79.5691863 L87.8216922,79.5691863 L87.8216922,79.5888882 Z M91.9714217,78.9518618 C91.8135873,78.419912 90.3733483,73.9869968 90.2878547,73.7243055 C90.2352432,73.5995272 90.2023611,73.4747488 90.1431732,73.4747488 C90.0708324,73.4747488 90.0050681,73.5995272 89.9458802,73.7440074 C89.8603865,73.9738622 88.1702431,78.5118539 88.0452909,78.9584291 L91.9714217,78.9584291 L91.9714217,78.9518618 Z" id="Shape"></path>
            <path d="M104.545562,73.7177382 C104.545562,73.0413082 104.42061,72.8311552 103.427569,72.6735404 C103.322346,72.6538386 103.302616,72.6210022 103.302616,72.5487621 L103.302616,72.2466671 C103.302616,72.174427 103.335499,72.1415906 103.447298,72.1218888 C104.137824,71.9774086 105.065101,71.8197938 105.400499,71.7475537 C105.558333,71.7278518 105.683285,71.6950154 105.808238,71.6950154 C105.893731,71.6950154 105.913461,71.8197938 105.893731,72.0168122 C105.84112,72.9033953 105.821391,75.4712025 105.821391,77.7237801 L105.821391,81.6378801 C105.821391,82.2946083 105.854273,83.0761148 105.998954,83.2534314 C106.156789,83.430748 106.531645,83.5358245 106.78155,83.5555264 C107.031454,83.5752282 107.103795,83.5883628 107.136677,83.6803047 L107.169559,83.8247849 C107.189289,83.9298614 107.14983,83.9823997 107.044607,84.0218034 L105.038795,84.6982334 C104.933572,84.7310698 104.841502,84.6785316 104.80862,84.5537532 L104.578445,83.7722467 C104.012871,84.3370329 102.875148,84.7310698 101.967601,84.7310698 C101.382298,84.7310698 100.704925,84.7639062 99.8762947,83.9167269 C98.9687469,83.0301438 98.758301,82.2355027 98.758301,81.0468247 C98.758301,79.9500887 99.1660399,78.8664872 100.001247,78.0324424 C100.691772,77.2903395 101.651932,76.9160045 102.644973,76.9160045 C103.374957,76.9160045 104.012871,77.021081 104.545562,77.185263 L104.545562,73.7308728 L104.545562,73.7177382 Z M104.545562,79.3393315 C104.545562,79.0897747 104.545562,78.7548434 104.387728,78.4724503 C104.137824,77.9930387 103.57225,77.5136271 102.526597,77.5136271 C101.974177,77.5136271 101.375721,77.6712419 100.908795,78.1506534 C100.218269,78.8927563 100.093317,79.8318776 100.093317,80.5083076 C100.093317,82.5113286 101.474368,83.9626978 102.506868,83.9626978 C103.539368,83.9626978 104.262776,83.4504499 104.440339,82.9907401 C104.53241,82.7280489 104.545562,82.5835687 104.545562,82.3865502 L104.545562,79.3393315 Z" id="Shape"></path>
            <path d="M112.430706,82.8856636 L112.483318,82.8856636 C112.766104,82.196099 114.00905,79.142313 114.186614,78.4527484 C114.311566,77.9733368 114.186614,77.6909437 113.864369,77.6909437 L113.509241,77.6909437 C113.45663,77.6909437 113.4369,77.5990018 113.4369,77.5136271 L113.4369,77.1918303 C113.4369,77.0867538 113.469783,77.0473501 113.542123,77.0473501 C113.792028,77.0473501 114.180037,77.0998884 114.962633,77.0998884 C115.653158,77.0998884 116.080627,77.0473501 116.238461,77.0473501 C116.383143,77.0473501 116.396295,77.0670519 116.396295,77.2049649 L116.396295,77.5070598 C116.396295,77.6318382 116.396295,77.6843764 116.310802,77.6843764 L115.975404,77.6843764 C115.764958,77.6843764 115.587394,77.7172128 115.422983,77.8813949 C115.159926,78.1309516 114.272107,80.0814343 114.002474,80.7381625 C113.792028,81.2701123 112.476741,84.245091 112.4044,84.3698693 C112.259719,84.619426 112.174225,84.7770408 111.976932,84.7770408 C111.799369,84.7770408 111.694146,84.619426 111.602075,84.4027057 L110.214448,80.8038353 C110.161837,80.6593551 109.431852,78.6234977 109.3069,78.3411046 C109.076725,77.8288566 108.899161,77.6843764 108.576916,77.6843764 L108.221789,77.6843764 C108.136295,77.6843764 108.116566,77.6121363 108.116566,77.5070598 L108.116566,77.185263 C108.116566,77.0604847 108.149448,77.0407828 108.313859,77.0407828 C108.511152,77.0407828 108.813668,77.0933211 109.806709,77.0933211 C110.747139,77.0933211 111.207489,77.0407828 111.404782,77.0407828 C111.549464,77.0407828 111.582346,77.0736192 111.582346,77.185263 L111.582346,77.5070598 C111.582346,77.6121363 111.562617,77.6843764 111.457394,77.6843764 L111.102267,77.6843764 C110.924703,77.6843764 110.780021,77.7894529 110.780021,78.0193078 C110.780021,78.3411046 111.240372,79.8253103 111.345595,80.1274053 C111.450818,80.4623366 112.213684,82.5047613 112.410977,82.8725291 L112.430706,82.8856636 Z" id="Path"></path>
            <path d="M123.492267,83.732843 C123.775054,83.732843 124.024958,83.5883628 124.110452,83.4635844 C124.182793,83.3782098 124.215675,83.3388061 124.288016,83.3913443 L124.465579,83.5358245 C124.518191,83.5883628 124.551073,83.6803047 124.44585,83.8576213 C124.301168,84.1203126 123.96577,84.7245025 123.058223,84.7245025 C122.420309,84.7245025 121.959958,84.2647928 121.795547,83.5358245 L121.762665,83.5358245 C121.387808,83.9758324 120.802506,84.3501675 120.006757,84.619426 C119.671359,84.7245025 119.349114,84.7245025 118.961105,84.7245025 C118.533636,84.7245025 117.895722,84.3698693 117.895722,83.2534314 C117.895722,82.4390885 118.270579,81.729822 119.671359,81.1059303 C120.467108,80.751297 121.394385,80.3244237 121.677172,80.074867 L121.677172,78.9387273 C121.644289,78.6366323 121.62456,78.1769226 121.427267,77.9470677 C121.229974,77.7172128 120.874847,77.5595981 120.361885,77.5595981 C120.006757,77.5595981 119.454337,77.7040783 119.211009,77.9339331 C118.961105,78.163788 119.125515,78.4330466 119.125515,78.7482761 C119.125515,79.3656006 118.915069,79.7596375 118.185085,79.7596375 C117.902299,79.7596375 117.757617,79.6020227 117.757617,79.1948513 C117.757617,78.630065 118.257426,77.953635 118.980834,77.5267617 C119.723971,77.0867538 120.348732,76.9028699 121.14448,76.9028699 C121.940229,76.9028699 122.315086,77.1524266 122.56499,77.3822815 C122.939847,77.7566165 122.953,78.163788 122.953,78.6431996 L122.953,82.3996848 C122.953,83.4110462 123.163445,83.7262757 123.485691,83.7262757 L123.492267,83.732843 Z M121.664019,80.6133841 C121.026105,81.0927957 119.28335,81.4474289 119.28335,82.9185 C119.28335,83.5752282 119.671359,83.8904577 120.20405,83.8904577 C120.736742,83.8904577 121.657442,83.266566 121.657442,82.7937217 L121.657442,80.6133841 L121.664019,80.6133841 Z" id="Shape"></path>
            <path d="M133.508175,83.5620936 C133.508175,83.8444868 133.66601,83.9364287 133.896185,83.9364287 L134.461758,83.9364287 C134.619593,83.9364287 134.659051,83.988967 134.659051,84.0940435 L134.659051,84.3764366 C134.659051,84.5012149 134.626169,84.573455 134.520946,84.573455 C134.395994,84.573455 133.843573,84.5209168 132.837379,84.5209168 C131.929831,84.5209168 131.364258,84.573455 131.239306,84.573455 C131.134083,84.573455 131.094624,84.5209168 131.094624,84.3764366 L131.094624,84.0940435 C131.094624,83.9692651 131.147236,83.9364287 131.324799,83.9364287 L131.837761,83.9364287 C132.035054,83.9364287 132.173159,83.851054 132.192889,83.5292572 C132.212618,83.0695475 132.225771,82.498194 132.225771,82.0384843 L132.225771,79.7005319 C132.225771,78.9912655 132.225771,78.4790175 131.712809,78.1046825 C131.285341,77.7828857 130.864449,77.7828857 130.417252,77.7828857 C130.134465,77.7828857 129.509704,77.907664 128.977013,78.4724503 C128.621885,78.8599199 128.569274,79.3393315 128.569274,79.6742628 L128.569274,83.3453733 C128.569274,83.8247849 128.621885,83.9298614 128.996742,83.9298614 L129.437363,83.9298614 C129.582045,83.9298614 129.614927,83.9823997 129.614927,84.107178 L129.614927,84.409273 C129.614927,84.5143495 129.582045,84.5668878 129.489974,84.5668878 C129.365022,84.5668878 128.884943,84.5143495 127.944513,84.5143495 C127.004083,84.5143495 126.471392,84.5668878 126.366169,84.5668878 C126.280675,84.5668878 126.241216,84.5143495 126.241216,84.409273 L126.241216,84.0874762 C126.241216,83.9823997 126.274099,83.9298614 126.41878,83.9298614 L126.931742,83.9298614 C127.161917,83.9298614 127.286869,83.8773232 127.286869,83.5752282 L127.286869,79.4247061 C127.286869,78.8927563 127.004083,78.5906613 126.556885,78.3805083 L126.41878,78.3082682 C126.293828,78.25573 126.274099,78.2031917 126.274099,78.1506534 L126.274099,78.0652788 C126.274099,77.9799041 126.346439,77.9207986 126.431933,77.8879622 L127.957665,77.0342155 C128.102347,76.9619754 128.20757,76.9094372 128.279911,76.9094372 C128.365404,76.9094372 128.404863,76.9816773 128.424592,77.1195902 L128.549544,78.2031917 L128.582427,78.2031917 C129.095388,77.5661654 130.127889,76.9094372 131.015707,76.9094372 C131.548398,76.9094372 132.100819,77.0145137 132.52171,77.2969068 C133.054401,77.65154 133.495022,78.5381231 133.495022,78.978131 L133.495022,83.5489591 L133.508175,83.5620936 Z" id="Path"></path>
            <path d="M137.927539,80.2259145 C137.927539,81.1847376 138.355007,82.2617719 138.835086,82.9185 C139.420389,83.6803047 140.163526,83.8247849 140.768558,83.8247849 C141.656376,83.8247849 142.116727,83.6277665 142.721759,83.0629802 C142.754641,83.0301438 142.807252,83.010442 142.859864,83.0629802 L143.037427,83.2402968 C143.109768,83.3125369 143.122921,83.3650752 143.037427,83.4701517 C142.524466,84.0546398 141.386743,84.7310698 140.176679,84.7310698 C139.236249,84.7310698 138.243207,84.5209168 137.42773,83.4898535 C136.770086,82.6229724 136.631981,81.8743022 136.631981,81.0796611 C136.631981,79.0044001 138.085373,76.9160045 140.43316,76.9160045 C142.281138,76.9160045 142.846711,77.9799041 142.846711,78.3542392 C142.826981,78.7614107 142.563924,78.978131 142.189067,78.978131 C141.781329,78.978131 141.478813,78.7482761 141.215755,78.2688645 C140.827746,77.5398962 140.452889,77.487358 140.025421,77.487358 C139.01265,77.487358 137.927539,78.4067774 137.927539,80.2324818 L137.927539,80.2259145 Z" id="Path"></path>
            <path d="M146.292762,79.7990412 C146.25988,79.9566559 146.24015,80.2390491 146.24015,80.6527878 C146.24015,82.3865502 147.338415,83.7000066 148.758924,83.7000066 C149.844036,83.7000066 150.606902,83.0761148 150.909418,82.4916267 C150.9423,82.4193866 151.014641,82.3865502 151.067253,82.4062521 L151.297428,82.5310304 C151.350039,82.5507323 151.382921,82.6032705 151.297428,82.7937217 C150.975183,83.5029881 150.054482,84.7245025 148.476138,84.7245025 C147.463367,84.7245025 146.345373,84.4224076 145.68773,83.4635844 C145.069545,82.5572995 144.905134,81.9005714 144.905134,80.6659224 C144.905134,79.9763578 145.082698,78.7876798 146.023128,77.8485585 C146.785994,77.0670519 147.673813,76.9094372 148.561631,76.9094372 C150.606902,76.9094372 151.172476,78.8270835 151.172476,79.5166481 C151.172476,79.7662048 150.96203,79.7990412 150.672667,79.7990412 L146.286185,79.7990412 L146.292762,79.7990412 Z M149.114052,79.2670914 C149.44945,79.2670914 149.594131,79.1751494 149.594131,79.0175346 C149.594131,78.6103632 149.383686,77.441387 148.226233,77.441387 C147.443638,77.441387 146.700501,77.953635 146.365103,79.2670914 L149.114052,79.2670914 Z" id="Shape"></path>
            <path d="M159.432476,79.9763578 C159.432476,78.6629014 159.182571,78.3279701 158.899785,78.0587115 C158.66961,77.8485585 158.156648,77.7369147 157.762062,77.7369147 C157.301711,77.7369147 156.551998,77.9667696 156.058766,78.7679779 C155.84832,79.1226112 155.808861,79.4575425 155.808861,79.9566559 L155.808861,83.4635844 C155.808861,83.7459775 155.914084,83.9232941 156.163988,83.9232941 L156.801903,83.9232941 C156.959737,83.9232941 156.979466,83.9561306 156.979466,84.0809089 L156.979466,84.363302 C156.979466,84.4880804 156.959737,84.5603205 156.834785,84.5603205 C156.67695,84.5603205 156.196871,84.5077822 155.216982,84.5077822 C154.237093,84.5077822 153.710979,84.5603205 153.566297,84.5603205 C153.461074,84.5603205 153.428192,84.5274841 153.428192,84.4027057 L153.428192,84.0809089 C153.428192,83.9364287 153.461074,83.9232941 153.638638,83.9232941 L154.24367,83.9232941 C154.401504,83.9232941 154.493574,83.8182176 154.513304,83.4832863 C154.533033,83.1811913 154.533033,82.8659618 154.533033,82.5638668 L154.533033,79.4115716 C154.533033,79.0569383 154.460692,78.7351415 154.033224,78.5052867 L153.658367,78.3082682 C153.566297,78.25573 153.533415,78.2228935 153.533415,78.163788 L153.533415,78.0193078 C153.533415,77.9667696 153.605756,77.8945295 153.638638,77.8748276 L155.203829,77.0801865 C155.341934,77.0079464 155.466887,76.97511 155.539227,76.97511 C155.64445,76.97511 155.697062,77.0998884 155.697062,77.2246667 L155.769402,78.25573 L155.822014,78.25573 C156.354705,77.5267617 157.400358,76.9094372 158.432858,76.9094372 C159.353559,76.9094372 160.063814,77.441387 160.43867,78.2754318 L160.524164,78.2754318 C161.056855,77.5858672 162.069626,76.9094372 163.135008,76.9094372 C163.753193,76.9094372 164.305613,77.0145137 164.733081,77.441387 C165.14082,77.8682603 165.588018,78.25573 165.588018,79.6217246 L165.588018,83.5752282 C165.588018,83.8444868 165.745852,83.9298614 165.962874,83.9298614 L166.442954,83.9298614 C166.600788,83.9298614 166.640247,83.9626978 166.640247,84.0874762 L166.640247,84.3895712 C166.640247,84.5143495 166.607365,84.5668878 166.515295,84.5668878 C166.390342,84.5668878 165.89711,84.5143495 165.042174,84.5143495 C164.187237,84.5143495 163.516441,84.5668878 163.391489,84.5668878 C163.286266,84.5668878 163.246807,84.5143495 163.246807,84.3895712 L163.246807,84.0874762 C163.246807,83.9626978 163.279689,83.9298614 163.476982,83.9298614 L163.917604,83.9298614 C164.114897,83.9298614 164.253002,83.8444868 164.272731,83.5949301 C164.305613,83.1877586 164.305613,82.5507323 164.305613,82.1566953 L164.305613,79.5297826 C164.305613,78.9452945 164.20039,78.4330466 163.792651,78.1112498 C163.470406,77.861693 163.010056,77.7369147 162.477365,77.7369147 C161.944673,77.7369147 161.214689,78.1440862 160.931903,78.6563341 C160.662269,79.1685821 160.681998,79.6479937 160.681998,80.4492021 L160.681998,83.5161227 C160.681998,83.7459775 160.774068,83.9232941 161.037126,83.9232941 L161.642158,83.9232941 C161.799992,83.9232941 161.839451,83.9561306 161.839451,84.0809089 L161.839451,84.363302 C161.839451,84.5077822 161.806568,84.5603205 161.714498,84.5603205 C161.589546,84.5603205 161.129196,84.5077822 160.136154,84.5077822 C159.143113,84.5077822 158.570963,84.5603205 158.46574,84.5603205 C158.380247,84.5603205 158.340788,84.5077822 158.340788,84.3830039 L158.340788,84.1006108 C158.340788,83.9561306 158.360517,83.9232941 158.518352,83.9232941 L159.031313,83.9232941 C159.3141,83.9232941 159.419323,83.851054 159.419323,83.6211992 L159.419323,79.9697905 L159.432476,79.9763578 Z" id="Path"></path>
            <path d="M170.11918,79.7990412 C170.086298,79.9566559 170.066569,80.2390491 170.066569,80.6527878 C170.066569,82.3865502 171.164833,83.7000066 172.585343,83.7000066 C173.670454,83.7000066 174.433321,83.0761148 174.735837,82.4916267 C174.768719,82.4193866 174.841059,82.3865502 174.893671,82.4062521 L175.123846,82.5310304 C175.176458,82.5507323 175.20934,82.6032705 175.123846,82.7937217 C174.801601,83.5029881 173.8809,84.7245025 172.302556,84.7245025 C171.289785,84.7245025 170.171792,84.4224076 169.514148,83.4635844 C168.895964,82.5572995 168.731553,81.9005714 168.731553,80.6659224 C168.731553,79.9763578 168.909117,78.7876798 169.849546,77.8485585 C170.612413,77.0670519 171.500231,76.9094372 172.38805,76.9094372 C174.426744,76.9094372 174.998894,78.8270835 174.998894,79.5166481 C174.998894,79.7662048 174.788448,79.7990412 174.499085,79.7990412 L170.112604,79.7990412 L170.11918,79.7990412 Z M172.94047,79.2670914 C173.275868,79.2670914 173.42055,79.1751494 173.42055,79.0175346 C173.42055,78.6103632 173.210104,77.441387 172.052652,77.441387 C171.270056,77.441387 170.526919,77.953635 170.191521,79.2670914 L172.94047,79.2670914 Z" id="Shape"></path>
            <path d="M184.574181,83.5620936 C184.574181,83.8444868 184.732015,83.9364287 184.962191,83.9364287 L185.527764,83.9364287 C185.685598,83.9364287 185.725057,83.988967 185.725057,84.0940435 L185.725057,84.3764366 C185.725057,84.5012149 185.692175,84.573455 185.580375,84.573455 C185.455423,84.573455 184.903003,84.5209168 183.896808,84.5209168 C182.989261,84.5209168 182.423687,84.573455 182.298735,84.573455 C182.193512,84.573455 182.154053,84.5209168 182.154053,84.3764366 L182.154053,84.0940435 C182.154053,83.9692651 182.206665,83.9364287 182.384229,83.9364287 L182.89719,83.9364287 C183.094483,83.9364287 183.232589,83.851054 183.252318,83.5292572 C183.272047,83.0695475 183.2852,82.498194 183.2852,82.0384843 L183.2852,79.7005319 C183.2852,78.9912655 183.2852,78.4790175 182.772238,78.1046825 C182.34477,77.7828857 181.917302,77.7828857 181.476681,77.7828857 C181.193894,77.7828857 180.569133,77.907664 180.036442,78.4724503 C179.681314,78.8599199 179.628703,79.3393315 179.628703,79.6742628 L179.628703,83.3453733 C179.628703,83.8247849 179.681314,83.9298614 180.056171,83.9298614 L180.503369,83.9298614 C180.641474,83.9298614 180.680932,83.9823997 180.680932,84.107178 L180.680932,84.409273 C180.680932,84.5143495 180.64805,84.5668878 180.55598,84.5668878 C180.431028,84.5668878 179.950948,84.5143495 179.010518,84.5143495 C178.070088,84.5143495 177.537397,84.5668878 177.432174,84.5668878 C177.346681,84.5668878 177.307222,84.5143495 177.307222,84.409273 L177.307222,84.0874762 C177.307222,83.9823997 177.340104,83.9298614 177.484786,83.9298614 L177.997748,83.9298614 C178.227923,83.9298614 178.352875,83.8773232 178.352875,83.5752282 L178.352875,79.4247061 C178.352875,78.8927563 178.070088,78.5906613 177.622891,78.3805083 L177.478209,78.3082682 C177.353257,78.25573 177.340104,78.2031917 177.340104,78.1506534 L177.340104,78.0652788 C177.340104,77.9799041 177.412445,77.9207986 177.497939,77.8879622 L179.023671,77.0342155 C179.168353,76.9619754 179.273576,76.9094372 179.345916,76.9094372 C179.437986,76.9094372 179.470869,76.9816773 179.490598,77.1195902 L179.61555,78.2031917 L179.648432,78.2031917 C180.161394,77.5661654 181.193894,76.9094372 182.081713,76.9094372 C182.614404,76.9094372 183.166824,77.0145137 183.587716,77.2969068 C184.120407,77.65154 184.561028,78.5381231 184.561028,78.978131 L184.561028,83.5489591 L184.574181,83.5620936 Z" id="Path"></path>
            <path d="M190.045774,82.3011755 C190.045774,83.6277665 190.650805,83.8641886 190.966474,83.8641886 C191.374213,83.8641886 191.887175,83.7919485 192.137079,83.6343337 C192.222573,83.5817955 192.294914,83.6014973 192.347525,83.6671702 L192.433019,83.8247849 C192.48563,83.897025 192.452748,83.9692651 192.400137,84.0218034 C192.222573,84.19912 191.492589,84.7310698 190.427207,84.7310698 C189.559118,84.7310698 188.704181,83.897025 188.704181,83.2271623 C188.704181,82.498194 188.756793,80.9417482 188.756793,80.6921915 L188.756793,80.3047219 C188.756793,79.9829251 188.776522,78.7811125 188.789675,78.0324424 L187.704563,78.0324424 C187.546729,78.0324424 187.43493,77.9602023 187.43493,77.8222894 C187.43493,77.6843764 187.540152,77.6252709 187.757175,77.5004925 C188.184643,77.2509358 189.552541,75.8849412 189.782716,75.2807513 C189.835328,75.1362711 189.927398,75.1034347 190.032621,75.1034347 C190.177302,75.1034347 190.210184,75.228213 190.210184,75.3726932 L190.124691,77.1064556 L192.590853,77.1064556 C192.696076,77.1064556 192.748688,77.1983976 192.715806,77.2640704 L192.538242,77.8879622 C192.518513,77.9733368 192.48563,78.0324424 192.380407,78.0324424 L190.091809,78.0324424 C190.058926,78.8467853 190.039197,79.7136665 190.039197,80.5345767 L190.039197,82.3077428 L190.045774,82.3011755 Z" id="Path"></path>
        </g>
    </g>
</svg>